<?xml version="1.0" encoding="UTF-8" standalone="no"?>
<svg
   xmlns:dc="http://purl.org/dc/elements/1.1/"
   xmlns:cc="http://creativecommons.org/ns#"
   xmlns:rdf="http://www.w3.org/1999/02/22-rdf-syntax-ns#"
   xmlns:svg="http://www.w3.org/2000/svg"
   xmlns="http://www.w3.org/2000/svg"
   viewBox="0 0 214.39999 197.30667"
   height="197.30667"
   width="214.39999"
   xml:space="preserve"
   id="svg2"
   version="1.1"><metadata
     id="metadata8"><rdf:RDF><cc:Work
         rdf:about=""><dc:format>image/svg+xml</dc:format><dc:type
           rdf:resource="http://purl.org/dc/dcmitype/StillImage" /></cc:Work></rdf:RDF></metadata><defs
     id="defs6" /><g
     transform="matrix(1.3333333,0,0,-1.3333333,0,197.30667)"
     id="g10"><g
       transform="scale(0.1)"
       id="g12"><path
         id="path14"
         style="fill:#105388;fill-opacity:1;fill-rule:nonzero;stroke:none"
         d="m 184.629,171.191 c -25.871,0 -43.734,-3.601 -53.598,-10.8 -7.207,-5.34 -10.801,-13.602 -10.801,-24.801 V 0.390625 H 78.6289 V 135.34 c 0,51.359 35.3361,77.058 106.0001,77.058 v -41.207" /><path
         id="path16"
         style="fill:#105388;fill-opacity:1;fill-rule:nonzero;stroke:none"
         d="m 360.223,106.191 c 0,21.661 -3.606,37.309 -10.801,46.95 -8.801,12.031 -24.27,18.05 -46.399,18.05 -22.136,0 -37.605,-6.019 -46.406,-18.05 -7.195,-9.641 -10.801,-25.289 -10.801,-46.95 0,-21.6715 3.606,-37.3199 10.801,-46.941 8.801,-11.7812 24.27,-17.6602 46.406,-17.6602 22.129,0 37.598,5.879 46.399,17.6602 7.195,9.6211 10.801,25.2695 10.801,46.941 z m 41.601,0 c 0,-70.5308 -32.937,-105.800375 -98.801,-105.800375 -66.14,0 -99.207,35.269575 -99.207,105.800375 0,70.809 33.067,106.207 99.207,106.207 65.864,0 98.801,-35.398 98.801,-106.207" /><path
         id="path18"
         style="fill:#105388;fill-opacity:1;fill-rule:nonzero;stroke:none"
         d="m 590.223,106.191 c 0,21.661 -3.594,37.309 -10.801,46.95 -9.063,12.031 -24.668,18.05 -46.797,18.05 H 475.43 v -65 c 0,-21.4019 3.59,-36.9215 10.797,-46.5426 8.8,-12.039 24.257,-18.0586 46.398,-18.0586 22.129,0 37.734,6.0196 46.797,18.0586 7.207,9.6211 10.801,25.1407 10.801,46.5426 z m 41.601,0 c 0,-70.5308 -33.066,-105.800375 -99.199,-105.800375 -65.867,0 -98.801,35.339875 -98.801,106.000375 v 189.597 h 41.606 v -83.59 h 57.195 c 66.133,0 99.199,-35.398 99.199,-106.207" /><path
         id="path20"
         style="fill:#105388;fill-opacity:1;fill-rule:nonzero;stroke:none"
         d="m 806.219,106.191 c 0,21.661 -3.606,37.309 -10.801,46.95 -8.801,12.031 -24.27,18.05 -46.398,18.05 -22.137,0 -37.606,-6.019 -46.407,-18.05 -7.195,-9.641 -10.8,-25.289 -10.8,-46.95 0,-21.6715 3.605,-37.3199 10.8,-46.941 8.801,-11.7812 24.27,-17.6602 46.407,-17.6602 22.128,0 37.597,5.879 46.398,17.6602 7.195,9.6211 10.801,25.2695 10.801,46.941 z m 41.601,0 c 0,-70.5308 -32.937,-105.800375 -98.8,-105.800375 -66.141,0 -99.207,35.269575 -99.207,105.800375 0,70.809 33.066,106.207 99.207,106.207 65.863,0 98.8,-35.398 98.8,-106.207" /><path
         id="path22"
         style="fill:#22b67e;fill-opacity:1;fill-rule:nonzero;stroke:none"
         d="m 1050.22,149.191 h -41.6 c 0,6.399 -1.86,11.071 -5.59,14 -6.413,5.329 -19.214,8 -38.413,8 -19.199,0 -31.992,-2.691 -38.398,-8.07 -3.742,-2.973 -5.594,-7.672 -5.594,-14.133 0,-8.066 2.598,-13.457 7.793,-16.148 5.203,-2.692 17.801,-4.699 37.801,-6.051 24.265,-1.598 42.261,-5.187 54.001,-10.769 20,-10.098 30,-27.6411 30,-52.6294 0,-42.2617 -28.53,-63.4023188 -85.603,-63.4023188 -57.058,0 -85.597,21.2031188 -85.597,63.6015188 h 41.605 c 0,-6.5195 1.852,-11.2578 5.594,-14.25 6.406,-5.4414 19.199,-8.1484 38.398,-8.1484 19.199,0 32,2.6875 38.413,8.0781 3.73,2.9493 5.59,7.6602 5.59,14.1211 0,7.8008 -2.4,13.0508 -7.2,15.7383 -5.604,2.9609 -18.268,5.1094 -38.002,6.4609 -24.531,1.5899 -42.531,5.1797 -53.996,10.7696 -20.274,9.8316 -30.402,27.3706 -30.402,52.6286 0,42.262 28.539,63.41 85.597,63.41 57.073,0 85.603,-21.078 85.603,-63.207" /><path
         id="path24"
         style="fill:#22b67e;fill-opacity:1;fill-rule:nonzero;stroke:none"
         d="m 1277.02,106.191 c 0,-70.5308 -33.07,-105.800375 -99.2,-105.800375 -65.87,0 -98.8,35.269575 -98.8,105.800375 v 106.207 h 41.6 v -106.41 c 0,-21.5974 3.6,-37.1989 10.8,-46.7966 8.8,-11.7422 24.26,-17.6016 46.4,-17.6016 22.13,0 37.6,5.8594 46.4,17.6016 7.2,9.5977 10.8,25.1992 10.8,46.7966 v 106.41 h 42 V 106.191" /><path
         id="path26"
         style="fill:#22b67e;fill-opacity:1;fill-rule:nonzero;stroke:none"
         d="m 1467.01,106.191 c 0,21.661 -3.59,37.309 -10.8,46.95 -9.06,12.031 -24.67,18.05 -46.8,18.05 h -57.2 v -65 c 0,-21.4019 3.6,-36.9215 10.81,-46.5426 8.79,-12.039 24.25,-18.0586 46.39,-18.0586 22.13,0 37.74,6.0196 46.8,18.0586 7.21,9.6211 10.8,25.1407 10.8,46.5426 z m 41.6,0 c 0,-70.5308 -33.07,-105.800375 -99.2,-105.800375 -65.87,0 -98.8,35.339875 -98.8,106.000375 v 189.597 h 41.6 v -83.59 h 57.2 c 66.13,0 99.2,-35.398 99.2,-106.207" /><path
         id="path28"
         style="fill:#22b67e;fill-opacity:1;fill-rule:nonzero;stroke:none"
         d="m 817.918,1286.81 c -0.215,0 -0.41,0 -0.613,0.02 -6.914,0.33 -12.258,6.21 -11.938,13.13 0.703,14.86 4.492,29.17 11.262,42.59 7.059,13.96 16.824,25.88 29.023,35.44 5.489,4.33 13.36,3.32 17.61,-2.12 4.285,-5.46 3.34,-13.34 -2.121,-17.62 -9.289,-7.28 -16.719,-16.37 -22.11,-27.03 -5.168,-10.22 -8.054,-21.16 -8.593,-32.46 -0.313,-6.72 -5.872,-11.95 -12.52,-11.95" /><path
         id="path30"
         style="fill:#22b67e;fill-opacity:1;fill-rule:nonzero;stroke:none"
         d="m 755.945,1288.43 c -0.183,0 -0.351,0 -0.507,0.02 -6.934,0.26 -12.325,6.09 -12.043,13.02 0.949,24.1 6.972,47.34 17.953,69.04 10.836,21.42 25.718,39.87 44.265,54.85 5.379,4.36 13.301,3.55 17.649,-1.86 4.363,-5.39 3.535,-13.3 -1.86,-17.65 -15.769,-12.74 -28.433,-28.44 -37.664,-46.67 -9.336,-18.47 -14.465,-38.21 -15.285,-58.69 -0.254,-6.77 -5.808,-12.06 -12.508,-12.06" /><path
         id="path32"
         style="fill:#22b67e;fill-opacity:1;fill-rule:nonzero;stroke:none"
         d="m 695.32,1290.49 c -0.097,0 -0.195,0 -0.293,0 -6.933,0.17 -12.422,5.92 -12.257,12.84 0.8,34.29 9.121,67.29 24.707,98.11 13.937,27.59 32.843,51.62 56.195,71.44 5.269,4.48 13.219,3.85 17.676,-1.44 4.5,-5.28 3.843,-13.21 -1.438,-17.68 -20.781,-17.64 -37.617,-39.05 -50.051,-63.63 -13.867,-27.46 -21.265,-56.88 -21.992,-87.38 -0.164,-6.84 -5.75,-12.26 -12.547,-12.26" /><path
         id="path34"
         style="fill:#22b67e;fill-opacity:1;fill-rule:nonzero;stroke:none"
         d="m 1034.39,1291.57 c -6.37,0 -11.82,4.84 -12.47,11.32 -0.97,9.83 -3.76,19.37 -8.3,28.35 -5.29,10.46 -12.58,19.43 -21.659,26.68 -5.41,4.32 -6.309,12.21 -1.984,17.64 4.296,5.39 12.183,6.32 17.643,1.97 11.92,-9.51 21.48,-21.27 28.39,-34.98 5.95,-11.76 9.61,-24.28 10.88,-37.21 0.69,-6.89 -4.36,-13.03 -11.26,-13.71 -0.41,-0.04 -0.83,-0.06 -1.24,-0.06" /><path
         id="path36"
         style="fill:#22b67e;fill-opacity:1;fill-rule:nonzero;stroke:none"
         d="m 1096.34,1294.71 c -6.47,0 -11.98,4.98 -12.5,11.55 -1.46,18.46 -6.49,36.27 -14.91,52.92 -9.44,18.64 -22.45,34.61 -38.66,47.45 -5.42,4.3 -6.34,12.21 -2.04,17.64 4.32,5.4 12.19,6.36 17.64,2.04 19.08,-15.11 34.37,-33.88 45.46,-55.79 9.91,-19.59 15.81,-40.54 17.54,-62.27 0.54,-6.91 -4.6,-12.95 -11.52,-13.51 -0.34,-0.02 -0.67,-0.03 -1.01,-0.03" /><path
         id="path38"
         style="fill:#22b67e;fill-opacity:1;fill-rule:nonzero;stroke:none"
         d="m 1157.04,1297.78 c -6.6,0 -12.12,5.14 -12.51,11.83 -1.62,28.11 -8.95,55.2 -21.74,80.51 -13.33,26.39 -31.7,49.05 -54.57,67.36 -5.41,4.35 -6.3,12.25 -1.96,17.65 4.36,5.41 12.23,6.26 17.64,1.96 25.71,-20.58 46.32,-46.02 61.29,-75.65 14.37,-28.4 22.57,-58.81 24.4,-90.39 0.39,-6.92 -4.89,-12.84 -11.81,-13.25 -0.25,-0.02 -0.5,-0.02 -0.74,-0.02" /><path
         id="path40"
         style="fill:#105388;fill-opacity:1;fill-rule:nonzero;stroke:none"
         d="m 1004.28,988.188 c -24.596,0 -44.514,19.932 -44.514,44.512 0,24.59 19.918,44.51 44.514,44.51 24.58,0 44.51,-19.92 44.51,-44.51 0,-24.58 -19.93,-44.512 -44.51,-44.512 z m -154.702,0 c -24.578,0 -44.512,19.932 -44.512,44.512 0,24.59 19.934,44.51 44.512,44.51 24.578,0 44.512,-19.92 44.512,-44.51 0,-24.58 -19.934,-44.512 -44.512,-44.512 z M 1084.94,1120.2 H 945.535 v 143.89 c 10.715,6.55 17.93,18.25 17.93,31.72 0,20.59 -16.692,37.28 -37.285,37.28 -20.586,0 -37.278,-16.69 -37.278,-37.28 0,-13.48 7.219,-25.18 17.942,-31.72 V 1120.2 H 768.863 c -22.636,0 -40.972,-13.1 -40.972,-29.27 V 948.285 c 41.968,1.551 82.625,1.942 123.574,1.942 5.387,0 10.75,-0.145 16.082,-0.411 3.738,0.266 8.574,0.411 13.43,0.411 h 244.983 v 140.703 c 0,16.17 -18.36,29.27 -41.02,29.27" /><path
         id="path42"
         style="fill:#22b67e;fill-opacity:1;fill-rule:nonzero;stroke:none"
         d="M 148.121,588.957 C 108.699,603.715 73.8047,616.859 46.0039,631.711 V 474.109 c 0,-17.039 13.9453,-30.98 30.9844,-30.98 h 61.2027 c 17.039,0 30.989,13.941 30.989,30.98 l 29.136,95.68 c -17.382,6.777 -34.324,13.231 -50.195,19.168" /><path
         id="path44"
         style="fill:#22b67e;fill-opacity:1;fill-rule:nonzero;stroke:none"
         d="m 201.023,861.879 -31.843,104.57 c 0,17.039 -13.95,30.985 -30.989,30.985 H 76.9883 c -17.0391,0 -30.9844,-13.946 -30.9844,-30.985 V 809.086 c 37.7344,19.473 90.3711,35.43 155.0191,52.793" /><path
         id="path46"
         style="fill:#105388;fill-opacity:1;fill-rule:nonzero;stroke:none"
         d="m 880.977,929.309 c -4.497,0 -8.938,-0.145 -13.372,-0.371 -6.046,0.226 -11.074,0.371 -16.14,0.371 -171.242,0 -336.34,-6.161 -623.418,-81.883 C 86.1602,810.012 -0.00390625,782.824 -0.00390625,720.863 -0.00390625,666.742 61.8438,643.586 155.457,608.559 178.484,599.926 203.25,590.648 229.313,580.07 432,497.785 846.922,512.211 851.07,512.406 c 5.461,0 10.489,0.145 15.489,0.379 5.48,-0.234 9.921,-0.379 14.418,-0.379 h 497.473 c 126.61,0 229.59,93.516 229.59,208.457 0,114.93 -102.98,208.446 -229.59,208.446 H 880.977" /></g></g></svg>
