<?xml version="1.0" encoding="UTF-8" standalone="no"?>
<svg
   xmlns:dc="http://purl.org/dc/elements/1.1/"
   xmlns:cc="http://creativecommons.org/ns#"
   xmlns:rdf="http://www.w3.org/1999/02/22-rdf-syntax-ns#"
   xmlns:svg="http://www.w3.org/2000/svg"
   xmlns="http://www.w3.org/2000/svg"
   viewBox="0 0 477.70667 82.613335"
   height="82.613335"
   width="477.70667"
   xml:space="preserve"
   id="svg2"
   version="1.1"><metadata
     id="metadata8"><rdf:RDF><cc:Work
         rdf:about=""><dc:format>image/svg+xml</dc:format><dc:type
           rdf:resource="http://purl.org/dc/dcmitype/StillImage" /></cc:Work></rdf:RDF></metadata><defs
     id="defs6" /><g
     transform="matrix(1.3333333,0,0,-1.3333333,0,82.613333)"
     id="g10"><g
       transform="scale(0.1)"
       id="g12"><path
         id="path14"
         style="fill:#274d84;fill-opacity:1;fill-rule:nonzero;stroke:none"
         d="m 1265.79,299.98 c -45.27,0 -76.54,-6.308 -93.79,-18.906 -12.6,-9.336 -18.91,-23.801 -18.91,-43.398 V 1.07422 H 1080.3 V 237.227 c 0,89.89 61.82,134.851 185.49,134.851 V 299.98" /><path
         id="path16"
         style="fill:#274d84;fill-opacity:1;fill-rule:nonzero;stroke:none"
         d="m 1573.08,186.23 c 0,37.911 -6.3,65.293 -18.9,82.149 -15.4,21.062 -42.47,31.601 -81.2,31.601 -38.74,0 -65.8,-10.539 -81.2,-31.601 -12.6,-16.856 -18.9,-44.238 -18.9,-82.149 0,-37.921 6.3,-65.312 18.9,-82.16 15.4,-20.6052 42.46,-30.8981 81.2,-30.8981 38.73,0 65.8,10.2929 81.2,30.8981 12.6,16.848 18.9,44.239 18.9,82.16 z m 72.8,0 c 0,-123.4487 -57.63,-185.15578 -172.9,-185.15578 -115.74,0 -173.59,61.70708 -173.59,185.15578 0,123.899 57.85,185.848 173.59,185.848 115.27,0 172.9,-61.949 172.9,-185.848" /><path
         id="path18"
         style="fill:#274d84;fill-opacity:1;fill-rule:nonzero;stroke:none"
         d="m 1975.59,186.23 c 0,37.911 -6.31,65.293 -18.91,82.149 -15.87,21.062 -43.16,31.601 -81.89,31.601 H 1774.68 V 186.23 c 0,-37.453 6.31,-64.609 18.91,-81.457 15.4,-21.0621 42.46,-31.6011 81.2,-31.6011 38.73,0 66.02,10.539 81.89,31.6011 12.6,16.848 18.91,44.004 18.91,81.457 z m 72.79,0 c 0,-123.4487 -57.87,-185.15578 -173.59,-185.15578 -115.27,0 -172.9,61.83598 -172.9,185.49578 v 331.809 h 72.79 V 372.078 h 100.11 c 115.72,0 173.59,-61.949 173.59,-185.848" /><path
         id="path20"
         style="fill:#274d84;fill-opacity:1;fill-rule:nonzero;stroke:none"
         d="m 2353.58,186.23 c 0,37.911 -6.3,65.293 -18.9,82.149 -15.4,21.062 -42.47,31.601 -81.2,31.601 -38.74,0 -65.8,-10.539 -81.2,-31.601 -12.6,-16.856 -18.9,-44.238 -18.9,-82.149 0,-37.921 6.3,-65.312 18.9,-82.16 15.4,-20.6052 42.46,-30.8981 81.2,-30.8981 38.73,0 65.8,10.2929 81.2,30.8981 12.6,16.848 18.9,44.239 18.9,82.16 z m 72.8,0 c 0,-123.4487 -57.64,-185.15578 -172.9,-185.15578 -115.74,0 -173.59,61.70708 -173.59,185.15578 0,123.899 57.85,185.848 173.59,185.848 115.26,0 172.9,-61.949 172.9,-185.848" /><path
         id="path22"
         style="fill:#3fbb75;fill-opacity:1;fill-rule:nonzero;stroke:none"
         d="m 2780.57,261.473 h -72.79 c 0,11.203 -3.27,19.367 -9.81,24.504 -11.2,9.324 -33.59,14.003 -67.19,14.003 -33.61,0 -56.01,-4.718 -67.2,-14.132 -6.54,-5.184 -9.81,-13.426 -9.81,-24.727 0,-14.129 4.55,-23.543 13.66,-28.25 9.1,-4.707 31.15,-8.242 66.15,-10.598 42.45,-2.8 73.95,-9.07 94.49,-18.847 35,-17.672 52.5,-48.367 52.5,-92.098 0,-73.9764 -49.94,-110.949094 -149.79,-110.949094 -99.88,0 -149.81,37.101594 -149.81,111.301094 h 72.8 c 0,-11.407 3.27,-19.7269 9.81,-24.9534 11.19,-9.5 33.59,-14.2461 67.2,-14.2461 33.6,0 55.99,4.6953 67.19,14.1289 6.54,5.1679 9.81,13.4106 9.81,24.7186 0,13.652 -4.2,22.832 -12.61,27.551 -9.79,5.172 -31.96,8.934 -66.49,11.297 -42.94,2.793 -74.45,9.07 -94.51,18.847 -35.46,17.207 -53.2,47.899 -53.2,92.098 0,73.969 49.93,110.957 149.81,110.957 99.85,0 149.79,-36.875 149.79,-110.605" /><path
         id="path24"
         style="fill:#3fbb75;fill-opacity:1;fill-rule:nonzero;stroke:none"
         d="m 3177.47,186.23 c 0,-123.4487 -57.87,-185.15578 -173.6,-185.15578 -115.26,0 -172.9,61.70708 -172.9,185.15578 v 185.848 h 72.8 V 185.879 c 0,-37.805 6.3,-65.098 18.9,-81.906 15.4,-20.5355 42.46,-30.8011 81.2,-30.8011 38.73,0 65.8,10.2656 81.2,30.8011 12.6,16.808 18.91,44.101 18.91,81.906 v 186.199 h 73.49 V 186.23" /><path
         id="path26"
         style="fill:#3fbb75;fill-opacity:1;fill-rule:nonzero;stroke:none"
         d="m 3509.96,186.23 c 0,37.911 -6.3,65.293 -18.9,82.149 -15.87,21.062 -43.17,31.601 -81.9,31.601 h -100.1 V 186.23 c 0,-37.453 6.31,-64.609 18.9,-81.457 15.4,-21.0621 42.46,-31.6011 81.2,-31.6011 38.73,0 66.03,10.539 81.9,31.6011 12.6,16.848 18.9,44.004 18.9,81.457 z m 72.8,0 c 0,-123.4487 -57.87,-185.15578 -173.6,-185.15578 -115.27,0 -172.9,61.83598 -172.9,185.49578 v 331.809 h 72.8 V 372.078 h 100.1 c 115.73,0 173.6,-61.949 173.6,-185.848" /><path
         id="path28"
         style="fill:#3fbb75;fill-opacity:1;fill-rule:nonzero;stroke:none"
         d="m 488.832,504.227 c -0.129,0 -0.242,0 -0.371,0.011 -4.133,0.196 -7.324,3.711 -7.129,7.852 0.422,8.875 2.688,17.43 6.731,25.449 4.214,8.34 10.054,15.469 17.339,21.18 3.286,2.59 7.993,1.984 10.532,-1.27 2.554,-3.261 1.992,-7.969 -1.274,-10.527 -5.547,-4.356 -9.988,-9.785 -13.211,-16.152 -3.086,-6.114 -4.812,-12.645 -5.136,-19.403 -0.184,-4.015 -3.504,-7.14 -7.481,-7.14" /><path
         id="path30"
         style="fill:#3fbb75;fill-opacity:1;fill-rule:nonzero;stroke:none"
         d="m 451.793,505.195 c -0.109,0 -0.207,0 -0.305,0.008 -4.14,0.156 -7.363,3.645 -7.195,7.785 0.562,14.403 4.168,28.289 10.73,41.258 6.473,12.805 15.372,23.828 26.457,32.785 3.211,2.606 7.95,2.117 10.543,-1.113 2.61,-3.223 2.114,-7.949 -1.113,-10.547 -9.422,-7.617 -16.988,-17.004 -22.508,-27.891 -5.578,-11.035 -8.64,-22.843 -9.129,-35.078 -0.16,-4.043 -3.476,-7.207 -7.48,-7.207" /><path
         id="path32"
         style="fill:#3fbb75;fill-opacity:1;fill-rule:nonzero;stroke:none"
         d="m 415.563,506.426 c -0.059,0 -0.122,0 -0.176,0 -4.145,0.097 -7.422,3.535 -7.324,7.676 0.476,20.488 5.449,40.214 14.761,58.632 8.332,16.485 19.629,30.848 33.586,42.696 3.156,2.675 7.903,2.304 10.567,-0.86 2.683,-3.156 2.296,-7.89 -0.86,-10.566 -12.422,-10.547 -22.48,-23.34 -29.914,-38.027 -8.289,-16.418 -12.715,-33.997 -13.14,-52.227 -0.098,-4.082 -3.442,-7.324 -7.5,-7.324" /><path
         id="path34"
         style="fill:#3fbb75;fill-opacity:1;fill-rule:nonzero;stroke:none"
         d="m 618.207,507.07 c -3.809,0 -7.07,2.891 -7.449,6.77 -0.586,5.867 -2.246,11.57 -4.961,16.941 -3.164,6.25 -7.524,11.61 -12.949,15.946 -3.235,2.578 -3.774,7.296 -1.184,10.539 2.566,3.222 7.277,3.777 10.535,1.179 7.129,-5.683 12.844,-12.715 16.977,-20.906 3.554,-7.031 5.742,-14.512 6.504,-22.238 0.41,-4.121 -2.61,-7.793 -6.731,-8.192 -0.246,-0.031 -0.5,-0.039 -0.742,-0.039" /><path
         id="path36"
         style="fill:#3fbb75;fill-opacity:1;fill-rule:nonzero;stroke:none"
         d="m 655.23,508.945 c -3.871,0 -7.16,2.977 -7.472,6.903 -0.867,11.035 -3.875,21.679 -8.906,31.632 -5.645,11.141 -13.418,20.684 -23.106,28.36 -3.242,2.566 -3.789,7.293 -1.223,10.535 2.582,3.234 7.29,3.801 10.54,1.223 11.406,-9.035 20.546,-20.254 27.167,-33.34 5.926,-11.711 9.454,-24.231 10.489,-37.215 0.324,-4.133 -2.754,-7.746 -6.883,-8.078 -0.207,-0.012 -0.402,-0.02 -0.606,-0.02" /><path
         id="path38"
         style="fill:#3fbb75;fill-opacity:1;fill-rule:nonzero;stroke:none"
         d="m 691.508,510.781 c -3.945,0 -7.246,3.074 -7.481,7.071 -0.964,16.796 -5.339,32.988 -12.988,48.113 -7.969,15.773 -18.945,29.316 -32.617,40.265 -3.231,2.598 -3.762,7.313 -1.172,10.547 2.605,3.231 7.316,3.739 10.547,1.172 15.359,-12.304 27.683,-27.511 36.633,-45.215 8.582,-16.972 13.484,-35.148 14.578,-54.023 0.234,-4.133 -2.918,-7.676 -7.063,-7.918 -0.144,-0.012 -0.293,-0.012 -0.437,-0.012" /><path
         id="path40"
         style="fill:#274d84;fill-opacity:1;fill-rule:nonzero;stroke:none"
         d="m 600.199,325.754 c -14.687,0 -26.601,11.91 -26.601,26.598 0,14.699 11.914,26.601 26.601,26.601 14.699,0 26.614,-11.902 26.614,-26.601 0,-14.688 -11.915,-26.598 -26.614,-26.598 z m -92.453,0 c -14.683,0 -26.598,11.91 -26.598,26.598 0,14.699 11.915,26.601 26.598,26.601 14.699,0 26.606,-11.902 26.606,-26.601 0,-14.688 -11.907,-26.598 -26.606,-26.598 z m 140.664,78.894 h -83.308 v 85.997 c 6.394,3.914 10.714,10.906 10.714,18.953 0,12.304 -9.972,22.285 -22.289,22.285 -12.3,0 -22.273,-9.981 -22.273,-22.285 0,-8.055 4.316,-15.047 10.723,-18.953 v -85.997 h -82.461 c -13.536,0 -24.493,-7.824 -24.493,-17.492 v -85.254 c 25.086,0.93 49.375,1.164 73.86,1.164 3.222,0 6.426,-0.089 9.605,-0.246 2.239,0.157 5.129,0.246 8.032,0.246 h 146.414 v 84.09 c 0,9.668 -10.977,17.492 -24.524,17.492" /><path
         id="path42"
         style="fill:#3fbb75;fill-opacity:1;fill-rule:nonzero;stroke:none"
         d="M 88.5313,87.1563 C 64.9648,95.9766 44.1172,103.828 27.4961,112.703 V 18.5156 C 27.4961,8.32813 35.8242,0 46.0117,0 h 36.5821 c 10.1835,0 18.5112,8.32813 18.5112,18.5156 l 17.415,57.1758 c -10.379,4.0547 -20.5083,7.9102 -29.9887,11.4649" /><path
         id="path44"
         style="fill:#3fbb75;fill-opacity:1;fill-rule:nonzero;stroke:none"
         d="m 120.141,250.262 -19.036,62.5 c 0,10.187 -8.3277,18.515 -18.5112,18.515 H 46.0117 c -10.1875,0 -18.5156,-8.328 -18.5156,-18.515 v -94.051 c 22.5469,11.641 54.0117,21.172 92.6449,31.551" /><path
         id="path46"
         style="fill:#274d84;fill-opacity:1;fill-rule:nonzero;stroke:none"
         d="m 526.52,290.566 c -2.688,0 -5.344,-0.089 -7.993,-0.226 -3.609,0.137 -6.621,0.226 -9.644,0.226 -102.348,0 -201.02,-3.683 -372.59,-48.937 C 51.5,219.266 0.00390625,203.016 0.00390625,165.984 0.00390625,133.641 36.9688,119.805 92.9141,98.8672 106.676,93.7109 121.48,88.1641 137.055,81.8438 258.188,32.6641 506.168,41.2891 508.648,41.4063 c 3.258,0 6.27,0.0859 9.254,0.2226 3.274,-0.1367 5.93,-0.2226 8.618,-0.2226 h 297.312 c 75.664,0 137.219,55.8906 137.219,124.5777 0,68.692 -61.555,124.582 -137.219,124.582 H 526.52" /></g></g></svg>