<?xml version="1.0" encoding="UTF-8" standalone="no"?>
<!DOCTYPE svg PUBLIC "-//W3C//DTD SVG 1.1//EN"
 "http://www.w3.org/Graphics/SVG/1.1/DTD/svg11.dtd">
<!-- Generated by graphviz version 2.38.0 (20140413.2041)
 -->
<!-- Title: sub8 Pages: 1 -->
<svg width="1424pt" height="834pt"
 viewBox="0.00 0.00 1424.00 834.00" xmlns="http://www.w3.org/2000/svg" xmlns:xlink="http://www.w3.org/1999/xlink">
<g id="graph0" class="graph" transform="scale(1 1) rotate(0) translate(4 830)">
<title>sub8</title>
<polygon fill="white" stroke="none" points="-4,4 -4,-830 1420,-830 1420,4 -4,4"/>
<text text-anchor="middle" x="708" y="-7.8" font-family="Times,serif" font-size="14.00">Sub8 High Level Software Graph</text>
<g id="clust1" class="cluster"><title>clusterSensors</title>
<polygon fill="none" stroke="black" points="8,-704 8,-818 1270,-818 1270,-704 8,-704"/>
<text text-anchor="middle" x="639" y="-802.8" font-family="Times,serif" font-size="14.00">Sensors</text>
</g>
<g id="clust2" class="cluster"><title>clusterCameras</title>
<polygon fill="none" stroke="black" points="421,-712 421,-787 830,-787 830,-712 421,-712"/>
<text text-anchor="middle" x="625.5" y="-771.8" font-family="Times,serif" font-size="14.00">Cameras</text>
</g>
<g id="clust3" class="cluster"><title>clusterNavbox</title>
<polygon fill="none" stroke="black" points="838,-712 838,-787 1262,-787 1262,-712 838,-712"/>
<text text-anchor="middle" x="1050" y="-771.8" font-family="Times,serif" font-size="14.00">Navbox</text>
</g>
<g id="clust4" class="cluster"><title>clusterCommand</title>
<polygon fill="none" stroke="black" points="277,-460 277,-535 379,-535 379,-460 277,-460"/>
<text text-anchor="middle" x="328" y="-519.8" font-family="Times,serif" font-size="14.00">Command</text>
</g>
<g id="clust5" class="cluster"><title>clusterPerception</title>
<polygon fill="none" stroke="black" points="27,-568 27,-643 575,-643 575,-568 27,-568"/>
<text text-anchor="middle" x="301" y="-627.8" font-family="Times,serif" font-size="14.00">Perception</text>
</g>
<g id="clust6" class="cluster"><title>clusterActuators</title>
<polygon fill="none" stroke="black" points="245,-31 245,-145 1408,-145 1408,-31 245,-31"/>
<text text-anchor="middle" x="826.5" y="-129.8" font-family="Times,serif" font-size="14.00">Actuators</text>
</g>
<g id="clust7" class="cluster"><title>clusterThrusters</title>
<polygon fill="none" stroke="black" points="413,-39 413,-114 1400,-114 1400,-39 413,-39"/>
<text text-anchor="middle" x="906.5" y="-98.8" font-family="Times,serif" font-size="14.00">Thrusters</text>
</g>
<g id="clust8" class="cluster"><title>clusterGNC</title>
<polygon fill="none" stroke="black" points="797,-178 797,-427 989,-427 989,-178 797,-178"/>
<text text-anchor="middle" x="893" y="-411.8" font-family="Times,serif" font-size="14.00">GNC</text>
</g>
<!-- imaging_sonar -->
<g id="node1" class="node"><title>imaging_sonar</title>
<ellipse fill="none" stroke="black" cx="311" cy="-738" rx="99.3824" ry="18"/>
<text text-anchor="middle" x="311" y="-734.3" font-family="Times,serif" font-size="14.00">Blueview Imaging Sonar</text>
</g>
<!-- pointcloud -->
<g id="node15" class="node"><title>pointcloud</title>
<ellipse fill="none" stroke="black" cx="316" cy="-594" rx="89.0842" ry="18"/>
<text text-anchor="middle" x="316" y="-590.3" font-family="Times,serif" font-size="14.00">Pointcloud Processing</text>
</g>
<!-- imaging_sonar&#45;&gt;pointcloud -->
<g id="edge8" class="edge"><title>imaging_sonar&#45;&gt;pointcloud</title>
<path fill="none" stroke="black" d="M311.603,-719.871C312.455,-695.67 314.021,-651.211 315.035,-622.393"/>
<polygon fill="black" stroke="black" points="318.541,-622.306 315.395,-612.189 311.545,-622.06 318.541,-622.306"/>
<text text-anchor="middle" x="346" y="-669.8" font-family="Times,serif" font-size="14.00">Pointclouds</text>
</g>
<!-- left_camera -->
<g id="node2" class="node"><title>left_camera</title>
<ellipse fill="none" stroke="black" cx="766" cy="-738" rx="55.7903" ry="18"/>
<text text-anchor="middle" x="766" y="-734.3" font-family="Times,serif" font-size="14.00">Left Camera</text>
</g>
<!-- computer_vision -->
<g id="node14" class="node"><title>computer_vision</title>
<ellipse fill="none" stroke="black" cx="495" cy="-594" rx="72.2875" ry="18"/>
<text text-anchor="middle" x="495" y="-590.3" font-family="Times,serif" font-size="14.00">Computer Vision</text>
</g>
<!-- left_camera&#45;&gt;computer_vision -->
<g id="edge23" class="edge"><title>left_camera&#45;&gt;computer_vision</title>
<path fill="none" stroke="black" d="M744.57,-720.992C719.279,-702.567 675.526,-672.135 635,-651 606.266,-636.014 572.583,-622.427 545.457,-612.389"/>
<polygon fill="black" stroke="black" points="546.375,-608.999 535.782,-608.856 543.974,-615.574 546.375,-608.999"/>
<text text-anchor="middle" x="728" y="-669.8" font-family="Times,serif" font-size="14.00">Images</text>
</g>
<!-- right_camera -->
<g id="node3" class="node"><title>right_camera</title>
<ellipse fill="none" stroke="black" cx="489" cy="-738" rx="60.3893" ry="18"/>
<text text-anchor="middle" x="489" y="-734.3" font-family="Times,serif" font-size="14.00">Right Camera</text>
</g>
<!-- right_camera&#45;&gt;computer_vision -->
<g id="edge24" class="edge"><title>right_camera&#45;&gt;computer_vision</title>
<path fill="none" stroke="black" d="M489.724,-719.871C490.746,-695.67 492.625,-651.211 493.843,-622.393"/>
<polygon fill="black" stroke="black" points="497.348,-622.328 494.274,-612.189 490.355,-622.033 497.348,-622.328"/>
<text text-anchor="middle" x="513" y="-669.8" font-family="Times,serif" font-size="14.00">Images</text>
</g>
<!-- down_camera -->
<g id="node4" class="node"><title>down_camera</title>
<ellipse fill="none" stroke="black" cx="630" cy="-738" rx="62.2891" ry="18"/>
<text text-anchor="middle" x="630" y="-734.3" font-family="Times,serif" font-size="14.00">Down Camera</text>
</g>
<!-- down_camera&#45;&gt;computer_vision -->
<g id="edge25" class="edge"><title>down_camera&#45;&gt;computer_vision</title>
<path fill="none" stroke="black" d="M614.25,-720.433C590.498,-695.45 545.383,-647.995 517.966,-619.157"/>
<polygon fill="black" stroke="black" points="520.495,-616.738 511.069,-611.902 515.422,-621.561 520.495,-616.738"/>
<text text-anchor="middle" x="611" y="-669.8" font-family="Times,serif" font-size="14.00">Images</text>
</g>
<!-- imu -->
<g id="node5" class="node"><title>imu</title>
<ellipse fill="none" stroke="black" cx="1083" cy="-738" rx="27" ry="18"/>
<text text-anchor="middle" x="1083" y="-734.3" font-family="Times,serif" font-size="14.00">Imu</text>
</g>
<!-- state_estimation -->
<g id="node12" class="node"><title>state_estimation</title>
<ellipse fill="none" stroke="black" cx="984" cy="-594" rx="96.3833" ry="18"/>
<text text-anchor="middle" x="984" y="-590.3" font-family="Times,serif" font-size="14.00">Extended Kalman Filter</text>
</g>
<!-- imu&#45;&gt;state_estimation -->
<g id="edge3" class="edge"><title>imu&#45;&gt;state_estimation</title>
<path fill="none" stroke="black" d="M1072.03,-721.261C1055.05,-696.917 1022.27,-649.891 1001.85,-620.607"/>
<polygon fill="black" stroke="black" points="1004.54,-618.334 995.945,-612.133 998.793,-622.338 1004.54,-618.334"/>
<text text-anchor="middle" x="1107.5" y="-684.8" font-family="Times,serif" font-size="14.00">Orientation</text>
<text text-anchor="middle" x="1107.5" y="-669.8" font-family="Times,serif" font-size="14.00">Angular Velocity</text>
<text text-anchor="middle" x="1107.5" y="-654.8" font-family="Times,serif" font-size="14.00">Linear Acceleration</text>
</g>
<!-- magnetometer -->
<g id="node6" class="node"><title>magnetometer</title>
<ellipse fill="none" stroke="black" cx="1191" cy="-738" rx="63.0888" ry="18"/>
<text text-anchor="middle" x="1191" y="-734.3" font-family="Times,serif" font-size="14.00">Magnetometer</text>
</g>
<!-- magnetometer&#45;&gt;state_estimation -->
<g id="edge4" class="edge"><title>magnetometer&#45;&gt;state_estimation</title>
<path fill="none" stroke="black" d="M1190.19,-719.736C1188.36,-700.43 1182.5,-669.456 1164,-651 1140.48,-627.538 1107.31,-613.878 1075.84,-605.935"/>
<polygon fill="black" stroke="black" points="1076.23,-602.432 1065.69,-603.552 1074.63,-609.246 1076.23,-602.432"/>
<text text-anchor="middle" x="1225.5" y="-669.8" font-family="Times,serif" font-size="14.00">Earth Heading</text>
</g>
<!-- dvl -->
<g id="node7" class="node"><title>dvl</title>
<ellipse fill="none" stroke="black" cx="875" cy="-738" rx="28.6953" ry="18"/>
<text text-anchor="middle" x="875" y="-734.3" font-family="Times,serif" font-size="14.00">DVL</text>
</g>
<!-- dvl&#45;&gt;state_estimation -->
<g id="edge5" class="edge"><title>dvl&#45;&gt;state_estimation</title>
<path fill="none" stroke="black" d="M874.215,-719.931C874.201,-701.365 876.72,-671.591 891,-651 901.595,-635.724 917.832,-623.905 933.791,-615.149"/>
<polygon fill="black" stroke="black" points="935.827,-618.037 943.111,-610.343 932.619,-611.815 935.827,-618.037"/>
<text text-anchor="middle" x="934" y="-669.8" font-family="Times,serif" font-size="14.00">Linear Velocity</text>
</g>
<!-- depth_sensor -->
<g id="node8" class="node"><title>depth_sensor</title>
<ellipse fill="none" stroke="black" cx="980" cy="-738" rx="58.4896" ry="18"/>
<text text-anchor="middle" x="980" y="-734.3" font-family="Times,serif" font-size="14.00">Depth Sensor</text>
</g>
<!-- depth_sensor&#45;&gt;state_estimation -->
<g id="edge6" class="edge"><title>depth_sensor&#45;&gt;state_estimation</title>
<path fill="none" stroke="black" d="M980.482,-719.871C981.164,-695.67 982.417,-651.211 983.228,-622.393"/>
<polygon fill="black" stroke="black" points="986.733,-622.284 983.516,-612.189 979.736,-622.087 986.733,-622.284"/>
<text text-anchor="middle" x="999" y="-669.8" font-family="Times,serif" font-size="14.00">Depth</text>
</g>
<!-- sonar_board -->
<g id="node9" class="node"><title>sonar_board</title>
<ellipse fill="none" stroke="black" cx="105" cy="-738" rx="89.0842" ry="18"/>
<text text-anchor="middle" x="105" y="-734.3" font-family="Times,serif" font-size="14.00">Sylphase Sonar Board</text>
</g>
<!-- multilateration -->
<g id="node10" class="node"><title>multilateration</title>
<ellipse fill="none" stroke="black" cx="122" cy="-594" rx="87.1846" ry="18"/>
<text text-anchor="middle" x="122" y="-590.3" font-family="Times,serif" font-size="14.00">Sonar Multilateration</text>
</g>
<!-- sonar_board&#45;&gt;multilateration -->
<g id="edge1" class="edge"><title>sonar_board&#45;&gt;multilateration</title>
<path fill="none" stroke="black" d="M107.051,-719.871C109.948,-695.67 115.271,-651.211 118.721,-622.393"/>
<polygon fill="black" stroke="black" points="122.229,-622.534 119.942,-612.189 115.278,-621.702 122.229,-622.534"/>
<text text-anchor="middle" x="158.5" y="-669.8" font-family="Times,serif" font-size="14.00">Pinger Heading</text>
</g>
<!-- missions -->
<g id="node11" class="node"><title>missions</title>
<ellipse fill="none" stroke="black" cx="328" cy="-486" rx="42.7926" ry="18"/>
<text text-anchor="middle" x="328" y="-482.3" font-family="Times,serif" font-size="14.00">Missions</text>
</g>
<!-- multilateration&#45;&gt;missions -->
<g id="edge2" class="edge"><title>multilateration&#45;&gt;missions</title>
<path fill="none" stroke="black" d="M152.84,-577.131C190.352,-557.829 253.524,-525.322 292.874,-505.074"/>
<polygon fill="black" stroke="black" points="294.563,-508.142 301.854,-500.454 291.36,-501.917 294.563,-508.142"/>
<text text-anchor="middle" x="261" y="-546.8" font-family="Times,serif" font-size="14.00">Pinger Position</text>
</g>
<!-- Valves -->
<g id="node13" class="node"><title>Valves</title>
<ellipse fill="none" stroke="black" cx="328" cy="-65" rx="75.2868" ry="18"/>
<text text-anchor="middle" x="328" y="-61.3" font-family="Times,serif" font-size="14.00">Pneumatic Valves</text>
</g>
<!-- missions&#45;&gt;Valves -->
<g id="edge7" class="edge"><title>missions&#45;&gt;Valves</title>
<path fill="none" stroke="black" d="M328,-467.742C328,-446.763 328,-410.285 328,-379 328,-379 328,-379 328,-203 328,-164.995 328,-121.059 328,-93.4024"/>
<polygon fill="black" stroke="black" points="331.5,-93.3013 328,-83.3014 324.5,-93.3014 331.5,-93.3013"/>
<text text-anchor="middle" x="360" y="-287.3" font-family="Times,serif" font-size="14.00">Open/Close</text>
</g>
<!-- path_planner -->
<g id="node24" class="node"><title>path_planner</title>
<ellipse fill="none" stroke="black" cx="882" cy="-378" rx="74.187" ry="18"/>
<text text-anchor="middle" x="882" y="-374.3" font-family="Times,serif" font-size="14.00">Path Planner (C3)</text>
</g>
<!-- missions&#45;&gt;path_planner -->
<g id="edge19" class="edge"><title>missions&#45;&gt;path_planner</title>
<path fill="none" stroke="black" d="M366.516,-477.63C459.862,-459.77 699.065,-414.002 815.852,-391.656"/>
<polygon fill="black" stroke="black" points="816.581,-395.081 825.745,-389.764 815.265,-388.205 816.581,-395.081"/>
<text text-anchor="middle" x="649" y="-438.8" font-family="Times,serif" font-size="14.00">Pose goal (Waypoint)</text>
</g>
<!-- state_estimation&#45;&gt;path_planner -->
<g id="edge21" class="edge"><title>state_estimation&#45;&gt;path_planner</title>
<path fill="none" stroke="black" d="M956.448,-576.751C941.624,-566.594 924.315,-552.185 914,-535 889.839,-494.748 883.651,-439.26 882.223,-406.457"/>
<polygon fill="black" stroke="black" points="885.715,-406.142 881.902,-396.257 878.719,-406.362 885.715,-406.142"/>
<text text-anchor="middle" x="942" y="-482.3" font-family="Times,serif" font-size="14.00">Odometry</text>
</g>
<!-- controller -->
<g id="node25" class="node"><title>controller</title>
<ellipse fill="none" stroke="black" cx="893" cy="-291" rx="88.2844" ry="18"/>
<text text-anchor="middle" x="893" y="-287.3" font-family="Times,serif" font-size="14.00">Controller (rise_6dof)</text>
</g>
<!-- state_estimation&#45;&gt;controller -->
<g id="edge22" class="edge"><title>state_estimation&#45;&gt;controller</title>
<path fill="none" stroke="black" d="M984.598,-575.708C985.52,-536.585 985.396,-438.567 965,-360 960.952,-344.406 960.664,-339.076 950,-327 945.507,-321.912 940.094,-317.323 934.416,-313.27"/>
<polygon fill="black" stroke="black" points="936.259,-310.293 925.982,-307.72 932.411,-316.141 936.259,-310.293"/>
<text text-anchor="middle" x="1008" y="-438.8" font-family="Times,serif" font-size="14.00">Odometry</text>
</g>
<!-- computer_vision&#45;&gt;missions -->
<g id="edge26" class="edge"><title>computer_vision&#45;&gt;missions</title>
<path fill="none" stroke="black" d="M472.95,-576.74C459.099,-566.71 440.746,-553.753 424,-543 403.629,-529.919 380.166,-516.209 361.535,-505.628"/>
<polygon fill="black" stroke="black" points="363.24,-502.572 352.812,-500.702 359.798,-508.667 363.24,-502.572"/>
<text text-anchor="middle" x="495" y="-546.8" font-family="Times,serif" font-size="14.00">Identified Objects</text>
</g>
<!-- pointcloud&#45;&gt;missions -->
<g id="edge9" class="edge"><title>pointcloud&#45;&gt;missions</title>
<path fill="none" stroke="black" d="M317.928,-575.969C319.817,-559.279 322.727,-533.579 324.934,-514.084"/>
<polygon fill="black" stroke="black" points="328.43,-514.319 326.077,-503.988 321.474,-513.531 328.43,-514.319"/>
<text text-anchor="middle" x="371" y="-546.8" font-family="Times,serif" font-size="14.00">Identified Objects</text>
</g>
<!-- flh -->
<g id="node16" class="node"><title>flh</title>
<ellipse fill="none" stroke="black" cx="1096" cy="-65" rx="51.9908" ry="18"/>
<text text-anchor="middle" x="1096" y="-61.3" font-family="Times,serif" font-size="14.00">FLH Motor</text>
</g>
<!-- flv -->
<g id="node17" class="node"><title>flv</title>
<ellipse fill="none" stroke="black" cx="1217" cy="-65" rx="51.1914" ry="18"/>
<text text-anchor="middle" x="1217" y="-61.3" font-family="Times,serif" font-size="14.00">FLV motor</text>
</g>
<!-- frh -->
<g id="node18" class="node"><title>frh</title>
<ellipse fill="none" stroke="black" cx="1339" cy="-65" rx="52.7911" ry="18"/>
<text text-anchor="middle" x="1339" y="-61.3" font-family="Times,serif" font-size="14.00">FRH Motor</text>
</g>
<!-- frv -->
<g id="node19" class="node"><title>frv</title>
<ellipse fill="none" stroke="black" cx="474" cy="-65" rx="52.7911" ry="18"/>
<text text-anchor="middle" x="474" y="-61.3" font-family="Times,serif" font-size="14.00">FRV Motor</text>
</g>
<!-- blh -->
<g id="node20" class="node"><title>blh</title>
<ellipse fill="none" stroke="black" cx="598" cy="-65" rx="53.0913" ry="18"/>
<text text-anchor="middle" x="598" y="-61.3" font-family="Times,serif" font-size="14.00">BLH Motor</text>
</g>
<!-- blv -->
<g id="node21" class="node"><title>blv</title>
<ellipse fill="none" stroke="black" cx="723" cy="-65" rx="53.0913" ry="18"/>
<text text-anchor="middle" x="723" y="-61.3" font-family="Times,serif" font-size="14.00">BLV Motor</text>
</g>
<!-- brh -->
<g id="node22" class="node"><title>brh</title>
<ellipse fill="none" stroke="black" cx="848" cy="-65" rx="53.0913" ry="18"/>
<text text-anchor="middle" x="848" y="-61.3" font-family="Times,serif" font-size="14.00">BLH Motor</text>
</g>
<!-- brv -->
<g id="node23" class="node"><title>brv</title>
<ellipse fill="none" stroke="black" cx="973" cy="-65" rx="53.0913" ry="18"/>
<text text-anchor="middle" x="973" y="-61.3" font-family="Times,serif" font-size="14.00">BLV Motor</text>
</g>
<!-- path_planner&#45;&gt;controller -->
<g id="edge10" class="edge"><title>path_planner&#45;&gt;controller</title>
<path fill="none" stroke="black" d="M884.226,-359.799C885.732,-348.163 887.753,-332.548 889.475,-319.237"/>
<polygon fill="black" stroke="black" points="892.965,-319.542 890.777,-309.175 886.023,-318.644 892.965,-319.542"/>
<text text-anchor="middle" x="917.5" y="-330.8" font-family="Times,serif" font-size="14.00">Trajectory</text>
</g>
<!-- thrust_mapper -->
<g id="node26" class="node"><title>thrust_mapper</title>
<ellipse fill="none" stroke="black" cx="893" cy="-204" rx="70.6878" ry="18"/>
<text text-anchor="middle" x="893" y="-200.3" font-family="Times,serif" font-size="14.00">Thruster Mapper</text>
</g>
<!-- controller&#45;&gt;thrust_mapper -->
<g id="edge20" class="edge"><title>controller&#45;&gt;thrust_mapper</title>
<path fill="none" stroke="black" d="M893,-272.799C893,-261.163 893,-245.548 893,-232.237"/>
<polygon fill="black" stroke="black" points="896.5,-232.175 893,-222.175 889.5,-232.175 896.5,-232.175"/>
<text text-anchor="middle" x="915" y="-243.8" font-family="Times,serif" font-size="14.00">Wrench</text>
</g>
<!-- thrust_mapper&#45;&gt;flh -->
<g id="edge11" class="edge"><title>thrust_mapper&#45;&gt;flh</title>
<path fill="none" stroke="black" d="M940.323,-190.553C969.589,-181.266 1006.82,-166.449 1035,-145 1053.96,-130.568 1070.16,-108.842 1081.08,-91.8239"/>
<polygon fill="black" stroke="black" points="1084.3,-93.274 1086.6,-82.9304 1078.35,-89.5861 1084.3,-93.274"/>
<text text-anchor="middle" x="1037.5" y="-156.8" font-family="Times,serif" font-size="14.00">Effort</text>
</g>
<!-- thrust_mapper&#45;&gt;flv -->
<g id="edge12" class="edge"><title>thrust_mapper&#45;&gt;flv</title>
<path fill="none" stroke="black" d="M962.905,-200.924C1019.31,-196.287 1098.61,-182.82 1157,-145 1177.12,-131.965 1193.11,-109.744 1203.5,-92.1828"/>
<polygon fill="black" stroke="black" points="1206.82,-93.4225 1208.69,-82.9939 1200.72,-89.9802 1206.82,-93.4225"/>
<text text-anchor="middle" x="1154.5" y="-156.8" font-family="Times,serif" font-size="14.00">Effort</text>
</g>
<!-- thrust_mapper&#45;&gt;frh -->
<g id="edge13" class="edge"><title>thrust_mapper&#45;&gt;frh</title>
<path fill="none" stroke="black" d="M961.674,-199.218C1057.64,-192.835 1225.85,-177.327 1277,-145 1297.71,-131.913 1314.36,-109.394 1325.17,-91.738"/>
<polygon fill="black" stroke="black" points="1328.24,-93.4208 1330.29,-83.0244 1322.21,-89.8788 1328.24,-93.4208"/>
<text text-anchor="middle" x="1271.5" y="-156.8" font-family="Times,serif" font-size="14.00">Effort</text>
</g>
<!-- thrust_mapper&#45;&gt;frv -->
<g id="edge14" class="edge"><title>thrust_mapper&#45;&gt;frv</title>
<path fill="none" stroke="black" d="M825.438,-198.279C735.711,-190.96 583.067,-174.543 536,-145 515.251,-131.977 498.602,-109.451 487.802,-91.7769"/>
<polygon fill="black" stroke="black" points="490.768,-89.916 482.697,-83.0528 484.726,-93.4514 490.768,-89.916"/>
<text text-anchor="middle" x="616.5" y="-156.8" font-family="Times,serif" font-size="14.00">Effort</text>
</g>
<!-- thrust_mapper&#45;&gt;blh -->
<g id="edge15" class="edge"><title>thrust_mapper&#45;&gt;blh</title>
<path fill="none" stroke="black" d="M826.232,-197.805C777.247,-191.388 710.855,-177.046 661,-145 640.266,-131.672 623.313,-109.176 612.237,-91.5909"/>
<polygon fill="black" stroke="black" points="615.162,-89.6631 606.992,-82.9171 609.172,-93.2854 615.162,-89.6631"/>
<text text-anchor="middle" x="718.5" y="-156.8" font-family="Times,serif" font-size="14.00">Effort</text>
</g>
<!-- thrust_mapper&#45;&gt;blv -->
<g id="edge16" class="edge"><title>thrust_mapper&#45;&gt;blv</title>
<path fill="none" stroke="black" d="M857.555,-188.194C835.585,-177.993 807.546,-163.043 786,-145 767.617,-129.605 750.904,-108.128 739.318,-91.4526"/>
<polygon fill="black" stroke="black" points="741.934,-89.0728 733.432,-82.7517 736.137,-92.9954 741.934,-89.0728"/>
<text text-anchor="middle" x="835.5" y="-156.8" font-family="Times,serif" font-size="14.00">Effort</text>
</g>
<!-- thrust_mapper&#45;&gt;brh -->
<g id="edge17" class="edge"><title>thrust_mapper&#45;&gt;brh</title>
<path fill="none" stroke="black" d="M887.392,-185.926C879.745,-162.647 865.966,-120.695 856.9,-93.0955"/>
<polygon fill="black" stroke="black" points="860.125,-91.6977 853.679,-83.2893 853.474,-93.8822 860.125,-91.6977"/>
<text text-anchor="middle" x="897.5" y="-156.8" font-family="Times,serif" font-size="14.00">Effort</text>
</g>
<!-- thrust_mapper&#45;&gt;brv -->
<g id="edge18" class="edge"><title>thrust_mapper&#45;&gt;brv</title>
<path fill="none" stroke="black" d="M905.646,-186.203C909.744,-180.526 914.208,-174.084 918,-168 933.618,-142.943 949.405,-113.094 960.034,-92.1813"/>
<polygon fill="black" stroke="black" points="963.3,-93.4778 964.675,-82.9725 957.049,-90.3275 963.3,-93.4778"/>
<text text-anchor="middle" x="942.5" y="-156.8" font-family="Times,serif" font-size="14.00">Effort</text>
</g>
</g>
</svg>
