<?xml version="1.0" encoding="UTF-8" standalone="no"?>
<!DOCTYPE svg PUBLIC "-//W3C//DTD SVG 1.1//EN" "http://www.w3.org/Graphics/SVG/1.1/DTD/svg11.dtd">
<!-- Generated by graphviz version 2.40.1 (20161225.0304)
 -->
<!-- Title: passive_sonar Pages: 1 -->
<svg width="488pt" height="2169pt" viewBox="0.00 0.00 487.96 2168.67" xmlns="http://www.w3.org/2000/svg" xmlns:xlink="http://www.w3.org/1999/xlink">
<g id="graph0" class="graph" transform="scale(1 1) rotate(0) translate(4 2164.674)">
<title>passive_sonar</title>
<polygon fill="#ffffff" stroke="transparent" points="-4,4 -4,-2164.674 483.9623,-2164.674 483.9623,4 -4,4"/>
<g id="clust1" class="cluster">
<title>cluster_triggering</title>
<polygon fill="#d3d3d3" stroke="#d3d3d3" points="90,-786.8526 90,-1805.674 450,-1805.674 450,-786.8526 90,-786.8526"/>
<text text-anchor="middle" x="145.0477" y="-1789.074" font-family="Times,serif" font-size="14.00" fill="#000000">Triggering ROS </text>
<text text-anchor="middle" x="145.0477" y="-1772.274" font-family="Times,serif" font-size="14.00" fill="#000000">Node</text>
</g>
<g id="clust2" class="cluster">
<title>cluster_ping_locator</title>
<polygon fill="#d3d3d3" stroke="#d3d3d3" points="8,-138 8,-767.8526 450,-767.8526 450,-138 8,-138"/>
<text text-anchor="middle" x="67.716" y="-751.2526" font-family="Times,serif" font-size="14.00" fill="#000000">Ping Locator ROS</text>
<text text-anchor="middle" x="67.716" y="-734.4526" font-family="Times,serif" font-size="14.00" fill="#000000">Node</text>
</g>
<!-- Forrest&#39;s Hydrophone Board -->
<g id="node1" class="node">
<title>Forrest's Hydrophone Board</title>
<ellipse fill="none" stroke="#000000" cx="330" cy="-2142.674" rx="122.1171" ry="18"/>
<text text-anchor="middle" x="330" y="-2138.474" font-family="Times,serif" font-size="14.00" fill="#000000">Forrest's Hydrophone Board</text>
</g>
<!-- Forrest&#39;s Driver -->
<g id="node2" class="node">
<title>Forrest's Driver</title>
<ellipse fill="none" stroke="#000000" cx="330" cy="-2069.674" rx="72.9465" ry="18"/>
<text text-anchor="middle" x="330" y="-2065.474" font-family="Times,serif" font-size="14.00" fill="#000000">Forrest's Driver</text>
</g>
<!-- Forrest&#39;s Hydrophone Board&#45;&gt;Forrest&#39;s Driver -->
<g id="edge1" class="edge">
<title>Forrest's Hydrophone Board-&gt;Forrest's Driver</title>
<path fill="none" stroke="#000000" d="M330,-2124.629C330,-2116.5568 330,-2106.8504 330,-2097.8557"/>
<polygon fill="#000000" stroke="#000000" points="333.5001,-2097.7643 330,-2087.7644 326.5001,-2097.7644 333.5001,-2097.7643"/>
</g>
<!-- TCP Port -->
<g id="node3" class="node">
<title>TCP Port</title>
<ellipse fill="none" stroke="#000000" cx="330" cy="-1996.674" rx="47.0091" ry="18"/>
<text text-anchor="middle" x="330" y="-1992.474" font-family="Times,serif" font-size="14.00" fill="#000000">TCP Port</text>
</g>
<!-- Forrest&#39;s Driver&#45;&gt;TCP Port -->
<g id="edge2" class="edge">
<title>Forrest's Driver-&gt;TCP Port</title>
<path fill="none" stroke="#000000" d="M330,-2051.629C330,-2043.5568 330,-2033.8504 330,-2024.8557"/>
<polygon fill="#000000" stroke="#000000" points="333.5001,-2024.7643 330,-2014.7644 326.5001,-2024.7644 333.5001,-2024.7643"/>
</g>
<!-- Slyphase Ros Bridge -->
<g id="node4" class="node">
<title>Slyphase Ros Bridge</title>
<ellipse fill="none" stroke="#000000" cx="330" cy="-1923.674" rx="92.076" ry="18"/>
<text text-anchor="middle" x="330" y="-1919.474" font-family="Times,serif" font-size="14.00" fill="#000000">Slyphase Ros Bridge</text>
</g>
<!-- TCP Port&#45;&gt;Slyphase Ros Bridge -->
<g id="edge3" class="edge">
<title>TCP Port-&gt;Slyphase Ros Bridge</title>
<path fill="none" stroke="#000000" d="M330,-1978.629C330,-1970.5568 330,-1960.8504 330,-1951.8557"/>
<polygon fill="#000000" stroke="#000000" points="333.5001,-1951.7643 330,-1941.7644 326.5001,-1951.7644 333.5001,-1951.7643"/>
</g>
<!-- ROS Topic (/hydrophones/samples) -->
<g id="node5" class="node">
<title>ROS Topic (/hydrophones/samples)</title>
<ellipse fill="none" stroke="#000000" cx="330" cy="-1850.674" rx="149.9246" ry="18"/>
<text text-anchor="middle" x="330" y="-1846.474" font-family="Times,serif" font-size="14.00" fill="#000000">ROS Topic (/hydrophones/samples)</text>
</g>
<!-- Slyphase Ros Bridge&#45;&gt;ROS Topic (/hydrophones/samples) -->
<g id="edge4" class="edge">
<title>Slyphase Ros Bridge-&gt;ROS Topic (/hydrophones/samples)</title>
<path fill="none" stroke="#000000" d="M330,-1905.629C330,-1897.5568 330,-1887.8504 330,-1878.8557"/>
<polygon fill="#000000" stroke="#000000" points="333.5001,-1878.7643 330,-1868.7644 326.5001,-1878.7644 333.5001,-1878.7643"/>
</g>
<!-- wait_for_new_data_triggering -->
<g id="node6" class="node">
<title>wait_for_new_data_triggering</title>
<ellipse fill="none" stroke="#000000" cx="330" cy="-1738.074" rx="86.8358" ry="18"/>
<text text-anchor="middle" x="330" y="-1733.874" font-family="Times,serif" font-size="14.00" fill="#000000">Wait For New Data</text>
</g>
<!-- ROS Topic (/hydrophones/samples)&#45;&gt;wait_for_new_data_triggering -->
<g id="edge5" class="edge">
<title>ROS Topic (/hydrophones/samples)-&gt;wait_for_new_data_triggering</title>
<path fill="none" stroke="#000000" d="M330,-1832.5829C330,-1814.6895 330,-1787.0466 330,-1766.2707"/>
<polygon fill="#000000" stroke="#000000" points="333.5001,-1766.1202 330,-1756.1202 326.5001,-1766.1203 333.5001,-1766.1202"/>
</g>
<!-- Raw Hydrophone Data -->
<g id="node8" class="node">
<title>Raw Hydrophone Data</title>
<ellipse fill="none" stroke="#000000" cx="291" cy="-1627.074" rx="100.1278" ry="18"/>
<text text-anchor="middle" x="291" y="-1622.874" font-family="Times,serif" font-size="14.00" fill="#000000">Raw Hydrophone Data</text>
</g>
<!-- wait_for_new_data_triggering&#45;&gt;Raw Hydrophone Data -->
<g id="edge6" class="edge">
<title>wait_for_new_data_triggering-&gt;Raw Hydrophone Data</title>
<path fill="none" stroke="#000000" d="M323.5599,-1719.7446C317.3412,-1702.0452 307.843,-1675.0116 300.7074,-1654.7026"/>
<polygon fill="#000000" stroke="#000000" points="303.9373,-1653.3367 297.3202,-1645.0623 297.333,-1655.6572 303.9373,-1653.3367"/>
</g>
<!-- Gradient(Hydrophone 0) &gt;\nThreshold -->
<g id="node7" class="node">
<title>Gradient(Hydrophone 0) &gt;\nThreshold</title>
<polygon fill="none" stroke="#000000" points="264,-1185.3742 97.6494,-1143.674 264,-1101.9738 430.3506,-1143.674 264,-1185.3742"/>
<text text-anchor="middle" x="264" y="-1147.874" font-family="Times,serif" font-size="14.00" fill="#000000">Gradient(Hydrophone 0) &gt;</text>
<text text-anchor="middle" x="264" y="-1131.074" font-family="Times,serif" font-size="14.00" fill="#000000">Threshold</text>
</g>
<!-- Gradient(Hydrophone 0) &gt;\nThreshold&#45;&gt;wait_for_new_data_triggering -->
<g id="edge11" class="edge">
<title>Gradient(Hydrophone 0) &gt;\nThreshold:e-&gt;wait_for_new_data_triggering:e</title>
<path fill="none" stroke="#000000" d="M430,-1143.674C465.3349,-1143.674 422,-1187.4391 422,-1222.774 422,-1425.774 422,-1425.774 422,-1425.774 422,-1482.7587 441,-1495.5893 441,-1552.574 441,-1682.574 441,-1682.574 441,-1682.574 441,-1705.4591 443.0842,-1729.6143 427.1077,-1736.2812"/>
<polygon fill="#000000" stroke="#000000" points="426.235,-1732.8812 417,-1738.074 427.4576,-1739.7736 426.235,-1732.8812"/>
<text text-anchor="middle" x="434.1066" y="-1448.474" font-family="Times,serif" font-size="14.00" fill="#000000">NO</text>
</g>
<!-- Crop Gradient(All Hydrophones)\n around where its &gt; threshold -->
<g id="node12" class="node">
<title>Crop Gradient(All Hydrophones)\n around where its &gt; Threshold</title>
<ellipse fill="none" stroke="#000000" cx="264" cy="-981.8584" rx="143.0345" ry="29.3315"/>
<text text-anchor="middle" x="264" y="-986.0584" font-family="Times,serif" font-size="14.00" fill="#000000">Crop Gradient(All Hydrophones)</text>
<text text-anchor="middle" x="264" y="-969.2584" font-family="Times,serif" font-size="14.00" fill="#000000"> around where its &gt; Threshold</text>
</g>
<!-- Gradient(Hydrophone 0) &gt;\nThreshold&#45;&gt;Crop Gradient(All Hydrophones)\n around where its &gt; threshold -->
<g id="edge12" class="edge">
<title>Gradient(Hydrophone 0) &gt;\nThreshold:s-&gt;Crop Gradient(All Hydrophones)\n around where its &gt; threshold:n</title>
<path fill="none" stroke="#000000" d="M264,-1102.074C264,-1065.3441 264,-1053.6867 264,-1021.4621"/>
<polygon fill="#000000" stroke="#000000" points="267.5001,-1021.274 264,-1011.274 260.5001,-1021.274 267.5001,-1021.274"/>
<text text-anchor="middle" x="277.2209" y="-1052.474" font-family="Times,serif" font-size="14.00" fill="#000000">YES</text>
</g>
<!-- Band pass the data for target frequency -->
<g id="node9" class="node">
<title>Band pass the data for target frequency</title>
<ellipse fill="none" stroke="#000000" cx="260" cy="-1516.074" rx="162.025" ry="18"/>
<text text-anchor="middle" x="260" y="-1511.874" font-family="Times,serif" font-size="14.00" fill="#000000">Band pass the data for target frequency</text>
</g>
<!-- Raw Hydrophone Data&#45;&gt;Band pass the data for target frequency -->
<g id="edge7" class="edge">
<title>Raw Hydrophone Data-&gt;Band pass the data for target frequency</title>
<path fill="none" stroke="#000000" d="M285.881,-1608.7446C280.9673,-1591.1506 273.4778,-1564.3331 267.8176,-1544.066"/>
<polygon fill="#000000" stroke="#000000" points="271.1876,-1543.1206 265.1266,-1534.4306 264.4456,-1545.0035 271.1876,-1543.1206"/>
</g>
<!-- Max Convolution of Data -->
<g id="node10" class="node">
<title>Max Convolution of Data</title>
<ellipse fill="none" stroke="#000000" cx="261" cy="-1389.274" rx="110.5814" ry="18"/>
<text text-anchor="middle" x="261" y="-1385.074" font-family="Times,serif" font-size="14.00" fill="#000000">Max Convolution of Data</text>
</g>
<!-- Band pass the data for target frequency&#45;&gt;Max Convolution of Data -->
<g id="edge8" class="edge">
<title>Band pass the data for target frequency-&gt;Max Convolution of Data</title>
<path fill="none" stroke="#000000" d="M260.1433,-1497.9066C260.3089,-1476.9092 260.5834,-1442.1001 260.777,-1417.553"/>
<polygon fill="#000000" stroke="#000000" points="264.2779,-1417.435 260.857,-1407.4076 257.2781,-1417.3797 264.2779,-1417.435"/>
</g>
<!-- Gradient of Max Convolution -->
<g id="node11" class="node">
<title>Gradient of Max Convolution</title>
<ellipse fill="none" stroke="#000000" cx="262" cy="-1278.274" rx="126.1923" ry="18"/>
<text text-anchor="middle" x="262" y="-1274.074" font-family="Times,serif" font-size="14.00" fill="#000000">Gradient of Max Convolution</text>
</g>
<!-- Max Convolution of Data&#45;&gt;Gradient of Max Convolution -->
<g id="edge9" class="edge">
<title>Max Convolution of Data-&gt;Gradient of Max Convolution</title>
<path fill="none" stroke="#000000" d="M261.1651,-1370.9446C261.3222,-1353.5113 261.5608,-1327.0222 261.7428,-1306.8229"/>
<polygon fill="#000000" stroke="#000000" points="265.2443,-1306.6618 261.8346,-1296.6306 258.2446,-1306.5986 265.2443,-1306.6618"/>
</g>
<!-- Gradient of Max Convolution&#45;&gt;Gradient(Hydrophone 0) &gt;\nThreshold -->
<g id="edge10" class="edge">
<title>Gradient of Max Convolution-&gt;Gradient(Hydrophone 0) &gt;\nThreshold</title>
<path fill="none" stroke="#000000" d="M262.2697,-1260.1212C262.5157,-1243.5687 262.8912,-1218.2948 263.2297,-1195.5178"/>
<polygon fill="#000000" stroke="#000000" points="266.7329,-1195.3196 263.382,-1185.2687 259.7337,-1195.2155 266.7329,-1195.3196"/>
</g>
<!-- Publish Gradient (All Hydrophones)\n to ROS Topic\n (/hydrophones/pings) -->
<g id="node13" class="node">
<title>Publish Gradient (All Hydrophones)\n to ROS Topic\n (/hydrophones/pings)</title>
<ellipse fill="none" stroke="#000000" cx="264" cy="-836.1477" rx="155.7988" ry="41.0911"/>
<text text-anchor="middle" x="264" y="-848.7477" font-family="Times,serif" font-size="14.00" fill="#000000">Publish Gradient (All Hydrophones)</text>
<text text-anchor="middle" x="264" y="-831.9477" font-family="Times,serif" font-size="14.00" fill="#000000"> to ROS Topic</text>
<text text-anchor="middle" x="264" y="-815.1477" font-family="Times,serif" font-size="14.00" fill="#000000"> (/hydrophones/pings)</text>
</g>
<!-- Crop Gradient(All Hydrophones)\n around where its &gt; threshold&#45;&gt;Publish Gradient (All Hydrophones)\n to ROS Topic\n (/hydrophones/pings) -->
<g id="edge13" class="edge">
<title>Crop Gradient(All Hydrophones)\n around where its &gt; threshold-&gt;Publish Gradient (All Hydrophones)\n to ROS Topic\n (/hydrophones/pings)</title>
<path fill="none" stroke="#000000" d="M264,-952.3716C264,-933.7783 264,-909.2597 264,-887.5369"/>
<polygon fill="#000000" stroke="#000000" points="267.5001,-887.461 264,-877.4611 260.5001,-887.4611 267.5001,-887.461"/>
</g>
<!-- wait_for_new_data_ping_locator -->
<g id="node14" class="node">
<title>wait_for_new_data_ping_locator</title>
<ellipse fill="none" stroke="#000000" cx="264" cy="-700.2526" rx="86.8358" ry="18"/>
<text text-anchor="middle" x="264" y="-696.0526" font-family="Times,serif" font-size="14.00" fill="#000000">Wait For New Data</text>
</g>
<!-- Publish Gradient (All Hydrophones)\n to ROS Topic\n (/hydrophones/pings)&#45;&gt;wait_for_new_data_ping_locator -->
<g id="edge14" class="edge">
<title>Publish Gradient (All Hydrophones)\n to ROS Topic\n (/hydrophones/pings)-&gt;wait_for_new_data_ping_locator</title>
<path fill="none" stroke="#000000" d="M264,-794.6363C264,-773.2656 264,-747.7615 264,-728.6556"/>
<polygon fill="#000000" stroke="#000000" points="267.5001,-728.4962 264,-718.4963 260.5001,-728.4963 267.5001,-728.4962"/>
</g>
<!-- Cross Correlate the Hydrophones -->
<g id="node16" class="node">
<title>Cross Correlate the Hydrophones</title>
<ellipse fill="none" stroke="#000000" cx="261" cy="-589.2526" rx="140.0525" ry="18"/>
<text text-anchor="middle" x="261" y="-585.0526" font-family="Times,serif" font-size="14.00" fill="#000000">Cross Correlate the Hydrophones</text>
</g>
<!-- wait_for_new_data_ping_locator&#45;&gt;Cross Correlate the Hydrophones -->
<g id="edge15" class="edge">
<title>wait_for_new_data_ping_locator-&gt;Cross Correlate the Hydrophones</title>
<path fill="none" stroke="#000000" d="M263.5046,-681.9232C263.0334,-664.4899 262.3175,-638.0008 261.7716,-617.8015"/>
<polygon fill="#000000" stroke="#000000" points="265.2651,-617.511 261.4961,-607.6093 258.2677,-617.7002 265.2651,-617.511"/>
</g>
<!-- Hydrophone Visualization -->
<g id="node15" class="node">
<title>Hydrophone Visualization</title>
<ellipse fill="none" stroke="#000000" cx="262" cy="-91" rx="113.4279" ry="18"/>
<text text-anchor="middle" x="262" y="-86.8" font-family="Times,serif" font-size="14.00" fill="#000000">Hydrophone Visualization</text>
</g>
<!-- publish ROS Topic (/hydrophones/direction_marker) -->
<g id="node20" class="node">
<title>publish ROS Topic (/hydrophones/direction_marker)</title>
<ellipse fill="none" stroke="#000000" cx="262" cy="-18" rx="216.4026" ry="18"/>
<text text-anchor="middle" x="262" y="-13.8" font-family="Times,serif" font-size="14.00" fill="#000000">publish ROS Topic (/hydrophones/direction_marker)</text>
</g>
<!-- Hydrophone Visualization&#45;&gt;publish ROS Topic (/hydrophones/direction_marker) -->
<g id="edge21" class="edge">
<title>Hydrophone Visualization-&gt;publish ROS Topic (/hydrophones/direction_marker)</title>
<path fill="none" stroke="#000000" d="M262,-72.9551C262,-64.8828 262,-55.1764 262,-46.1817"/>
<polygon fill="#000000" stroke="#000000" points="265.5001,-46.0903 262,-36.0904 258.5001,-46.0904 265.5001,-46.0903"/>
</g>
<!-- Get time Deltas from \nCross Correlation (Time delay) -->
<g id="node17" class="node">
<title>Get time Deltas from \nCross Correlation (Time delay)</title>
<ellipse fill="none" stroke="#000000" cx="236" cy="-466.837" rx="135.0883" ry="29.3315"/>
<text text-anchor="middle" x="236" y="-471.037" font-family="Times,serif" font-size="14.00" fill="#000000">Get time Deltas from </text>
<text text-anchor="middle" x="236" y="-454.237" font-family="Times,serif" font-size="14.00" fill="#000000">Cross Correlation (Time delay)</text>
</g>
<!-- Cross Correlate the Hydrophones&#45;&gt;Get time Deltas from \nCross Correlation (Time delay) -->
<g id="edge16" class="edge">
<title>Cross Correlate the Hydrophones-&gt;Get time Deltas from \nCross Correlation (Time delay)</title>
<path fill="none" stroke="#000000" d="M257.3112,-571.1898C253.8404,-554.195 248.5258,-528.1711 244.0723,-506.3639"/>
<polygon fill="#000000" stroke="#000000" points="247.4621,-505.4703 242.0319,-496.3729 240.6037,-506.871 247.4621,-505.4703"/>
</g>
<!-- Calculate the unit vector\n of the direction of the\n ping from Deltas (utils.py calcualte_dir_pinger) -->
<g id="node18" class="node">
<title>Calculate the unit vector\n of the direction of the\n ping from Deltas (utils.py calcualte_dir_pinger)</title>
<ellipse fill="none" stroke="#000000" cx="219" cy="-321.1263" rx="203.3934" ry="41.0911"/>
<text text-anchor="middle" x="219" y="-333.7263" font-family="Times,serif" font-size="14.00" fill="#000000">Calculate the unit vector</text>
<text text-anchor="middle" x="219" y="-316.9263" font-family="Times,serif" font-size="14.00" fill="#000000"> of the direction of the</text>
<text text-anchor="middle" x="219" y="-300.1263" font-family="Times,serif" font-size="14.00" fill="#000000"> ping from Deltas (utils.py calcualte_dir_pinger)</text>
</g>
<!-- Get time Deltas from \nCross Correlation (Time delay)&#45;&gt;Calculate the unit vector\n of the direction of the\n ping from Deltas (utils.py calcualte_dir_pinger) -->
<g id="edge17" class="edge">
<title>Get time Deltas from \nCross Correlation (Time delay)-&gt;Calculate the unit vector\n of the direction of the\n ping from Deltas (utils.py calcualte_dir_pinger)</title>
<path fill="none" stroke="#000000" d="M232.5598,-437.3503C230.3905,-418.7569 227.5299,-394.2383 224.9956,-372.5155"/>
<polygon fill="#000000" stroke="#000000" points="228.4554,-371.9667 223.82,-362.4397 221.5025,-372.778 228.4554,-371.9667"/>
</g>
<!-- publish the vector on ROS\n Topic (/hydrophones/direction) -->
<g id="node19" class="node">
<title>publish the vector on ROS\n Topic (/hydrophones/direction)</title>
<ellipse fill="none" stroke="#000000" cx="262" cy="-175.4156" rx="137.548" ry="29.3315"/>
<text text-anchor="middle" x="262" y="-179.6156" font-family="Times,serif" font-size="14.00" fill="#000000">publish the vector on ROS</text>
<text text-anchor="middle" x="262" y="-162.8156" font-family="Times,serif" font-size="14.00" fill="#000000"> Topic (/hydrophones/direction)</text>
</g>
<!-- Calculate the unit vector\n of the direction of the\n ping from Deltas (utils.py calcualte_dir_pinger)&#45;&gt;publish the vector on ROS\n Topic (/hydrophones/direction) -->
<g id="edge18" class="edge">
<title>Calculate the unit vector\n of the direction of the\n ping from Deltas (utils.py calcualte_dir_pinger)-&gt;publish the vector on ROS\n Topic (/hydrophones/direction)</title>
<path fill="none" stroke="#000000" d="M231.2071,-279.7612C237.2395,-259.3197 244.4804,-234.7828 250.4247,-214.6398"/>
<polygon fill="#000000" stroke="#000000" points="253.8409,-215.4293 253.3145,-204.8476 247.1272,-213.448 253.8409,-215.4293"/>
</g>
<!-- publish the vector on ROS\n Topic (/hydrophones/direction)&#45;&gt;wait_for_new_data_ping_locator -->
<g id="edge19" class="edge">
<title>publish the vector on ROS\n Topic (/hydrophones/direction)-&gt;wait_for_new_data_ping_locator:e</title>
<path fill="none" stroke="#000000" d="M361.9669,-195.7221C402.9691,-207.0106 441,-222.7569 441,-242.3313 441,-644.7526 441,-644.7526 441,-644.7526 441,-688.3507 403.9852,-698.8223 361.111,-700.1081"/>
<polygon fill="#000000" stroke="#000000" points="360.9489,-696.6099 351,-700.2526 361.0491,-703.6092 360.9489,-696.6099"/>
</g>
<!-- publish the vector on ROS\n Topic (/hydrophones/direction)&#45;&gt;Hydrophone Visualization -->
<g id="edge20" class="edge">
<title>publish the vector on ROS\n Topic (/hydrophones/direction)-&gt;Hydrophone Visualization</title>
<path fill="none" stroke="#000000" d="M262,-145.8911C262,-137.3331 262,-128.008 262,-119.5131"/>
<polygon fill="#000000" stroke="#000000" points="265.5001,-119.3169 262,-109.3169 258.5001,-119.317 265.5001,-119.3169"/>
</g>
</g>
</svg>
