<?xml version="1.0" encoding="UTF-8" standalone="no"?>
<!-- Created with Inkscape (http://www.inkscape.org/) -->

<svg
   xmlns:dc="http://purl.org/dc/elements/1.1/"
   xmlns:cc="http://creativecommons.org/ns#"
   xmlns:rdf="http://www.w3.org/1999/02/22-rdf-syntax-ns#"
   xmlns:svg="http://www.w3.org/2000/svg"
   xmlns="http://www.w3.org/2000/svg"
   xmlns:sodipodi="http://sodipodi.sourceforge.net/DTD/sodipodi-0.dtd"
   xmlns:inkscape="http://www.inkscape.org/namespaces/inkscape"
   width="744.09448819"
   height="1052.3622047"
   id="svg2"
   version="1.1"
   inkscape:version="0.48.4 r9939"
   sodipodi:docname="mil.svg"
   inkscape:export-filename="/home/forrest/mil2.png"
   inkscape:export-xdpi="332.70999"
   inkscape:export-ydpi="332.70999">
  <defs
     id="defs4" />
  <sodipodi:namedview
     id="base"
     pagecolor="#ffffff"
     bordercolor="#666666"
     borderopacity="1.0"
     inkscape:pageopacity="0.0"
     inkscape:pageshadow="2"
     inkscape:zoom="8"
     inkscape:cx="375.09673"
     inkscape:cy="587.8254"
     inkscape:document-units="px"
     inkscape:current-layer="layer1"
     showgrid="false"
     inkscape:window-width="1871"
     inkscape:window-height="1056"
     inkscape:window-x="1649"
     inkscape:window-y="24"
     inkscape:window-maximized="1" />
  <metadata
     id="metadata7">
    <rdf:RDF>
      <cc:Work
         rdf:about="">
        <dc:format>image/svg+xml</dc:format>
        <dc:type
           rdf:resource="http://purl.org/dc/dcmitype/StillImage" />
        <dc:title></dc:title>
      </cc:Work>
    </rdf:RDF>
  </metadata>
  <g
     inkscape:label="Layer 1"
     inkscape:groupmode="layer"
     id="layer1">
    <path
       style="fill:#000000;fill-opacity:1;stroke:none"
       d="m 371.49544,457.14163 7.00793,0.008 10e-4,35.00061 -6.01005,0 0,-2.00893 4.01228,0.006 -0.005,-12.57955 -11.04028,-10.88473 -6.96485,22.46875 2,-0.004 0.004,2.00391 -8.00391,0 0,-2.00391 5,0 8.78522,-27.94852 10.22059,10.39964 -0.002,-12.45503 -5.01563,0 z"
       id="path3052"
       inkscape:connector-curvature="0"
       sodipodi:nodetypes="ccccccccccccccccccc" />
    <path
       style="fill:#000000;fill-opacity:1;stroke:none"
       d="m 387.50176,457.14 -7.00793,0.008 -10e-4,35.00061 6.01005,0 0,-2.00893 -4.01228,0.006 0.005,-12.57955 11.04028,-10.88473 6.96485,22.46875 -2,-0.004 -0.004,2.00391 8.00391,0 0,-2.00391 -5,0 -8.78522,-27.94852 -10.22059,10.39964 0.002,-12.45503 5.01563,0 z"
       id="path3052-4"
       inkscape:connector-curvature="0"
       sodipodi:nodetypes="ccccccccccccccccccc" />
    <rect
       style="fill:#000000;fill-opacity:1;stroke:none"
       id="rect3840"
       width="54.003906"
       height="2.0039062"
       x="352.49609"
       y="493.14343" />
    <rect
       style="fill:none;stroke:#000000;stroke-width:4;stroke-miterlimit:4;stroke-opacity:1;stroke-dasharray:none"
       id="rect3842"
       width="65.242851"
       height="47.270897"
       x="346.84445"
       y="453.00058"
       ry="6.4943085" />
  </g>
</svg>
