<?xml version="1.0" encoding="UTF-8" standalone="no"?>
<!-- Created with Inkscape (http://www.inkscape.org/) -->

<svg
   xmlns:dc="http://purl.org/dc/elements/1.1/"
   xmlns:cc="http://creativecommons.org/ns#"
   xmlns:rdf="http://www.w3.org/1999/02/22-rdf-syntax-ns#"
   xmlns:svg="http://www.w3.org/2000/svg"
   xmlns="http://www.w3.org/2000/svg"
   xmlns:sodipodi="http://sodipodi.sourceforge.net/DTD/sodipodi-0.dtd"
   xmlns:inkscape="http://www.inkscape.org/namespaces/inkscape"
   width="78"
   height="78"
   id="svg2"
   version="1.1"
   inkscape:version="0.48.4 r9939"
   sodipodi:docname="mil.svg"
   inkscape:export-filename="/home/forrest/mil2.png"
   inkscape:export-xdpi="900"
   inkscape:export-ydpi="900">
  <sodipodi:namedview
     pagecolor="#ffffff"
     bordercolor="#666666"
     borderopacity="1"
     objecttolerance="10"
     gridtolerance="10"
     guidetolerance="10"
     inkscape:pageopacity="0"
     inkscape:pageshadow="2"
     inkscape:window-width="1551"
     inkscape:window-height="876"
     id="namedview10"
     showgrid="true"
     inkscape:zoom="10.148731"
     inkscape:cx="37.897359"
     inkscape:cy="34.440812"
     inkscape:window-x="49"
     inkscape:window-y="24"
     inkscape:window-maximized="1"
     inkscape:current-layer="layer1"
     fit-margin-top="13"
     fit-margin-left="5"
     fit-margin-right="5"
     fit-margin-bottom="13"
     borderlayer="false"
     inkscape:showpageshadow="true">
    <inkscape:grid
       type="xygrid"
       id="grid2987"
       empspacing="5"
       visible="true"
       enabled="true"
       snapvisiblegridlinesonly="true"
       originx="-340px"
       originy="-537px" />
  </sodipodi:namedview>
  <defs
     id="defs4" />
  <metadata
     id="metadata7">
    <rdf:RDF>
      <cc:Work
         rdf:about="">
        <dc:format>image/svg+xml</dc:format>
        <dc:type
           rdf:resource="http://purl.org/dc/dcmitype/StillImage" />
        <dc:title />
      </cc:Work>
    </rdf:RDF>
  </metadata>
  <g
     inkscape:label="Layer 1"
     inkscape:groupmode="layer"
     id="layer1"
     transform="translate(-340,-437)">
    <path
       style="fill:#000000;fill-opacity:1;stroke:none"
       d="m 371,457 7,0 0,35 -6,0 0,-2 4,0 0,-13 -11,-10 -7,22 2,0 0,2 -8,0 0,-2 5,0 9,-28 10,10 0,-12 -5,0 z"
       id="path3052"
       inkscape:connector-curvature="0"
       sodipodi:nodetypes="ccccccccccccccccccc" />
    <path
       style="fill:#000000;fill-opacity:1;stroke:none"
       d="m 387,457 -7,0 0,35 6,0 0,-2 -4,0 0,-13 11,-10 7,22 -2,0 0,2 8,0 0,-2 -5,0 -9,-28 -10,10 0,-12 5,0 z"
       id="path3052-4"
       inkscape:connector-curvature="0"
       sodipodi:nodetypes="ccccccccccccccccccc" />
    <rect
       style="fill:#000000;fill-opacity:1;stroke:none"
       id="rect3840"
       width="54"
       height="2"
       x="352"
       y="493" />
    <rect
       style="fill:none;stroke:#000000;stroke-width:4;stroke-miterlimit:4;stroke-opacity:1;stroke-dasharray:none"
       id="rect3842"
       width="64"
       height="48"
       x="347"
       y="452"
       ry="7" />
  </g>
</svg>
