<?xml version="1.0" encoding="UTF-8" standalone="no"?>
<!DOCTYPE svg PUBLIC "-//W3C//DTD SVG 1.1//EN" "http://www.w3.org/Graphics/SVG/1.1/DTD/svg11.dtd">
<!-- Generated by graphviz version 2.40.1 (20161225.0304)
 -->
<!-- Title: indyav_gazebo Pages: 1 -->
<svg width="1533pt" height="823pt" viewBox="0.00 0.00 1533.30 823.02" xmlns="http://www.w3.org/2000/svg" xmlns:xlink="http://www.w3.org/1999/xlink">
<g id="graph0" class="graph" transform="scale(1 1) rotate(0) translate(4 819.0214)">
<title>indyav_gazebo</title>
<polygon fill="#ffffff" stroke="transparent" points="-4,4 -4,-819.0214 1529.3004,-819.0214 1529.3004,4 -4,4"/>
<g id="clust1" class="cluster">
<title>cluster_gazebo</title>
<polygon fill="none" stroke="#0000ff" points="271.3004,-256.4 271.3004,-446.9901 1517.3004,-446.9901 1517.3004,-256.4 271.3004,-256.4"/>
<text text-anchor="middle" x="317.4704" y="-420.4901" font-family="Times,serif" font-size="25.00" fill="#000000">Gazebo</text>
</g>
<g id="clust2" class="cluster">
<title>cluster_indyav_car</title>
<polygon fill="none" stroke="#0000ff" points="279.3004,-264.4 279.3004,-400.9901 1509.3004,-400.9901 1509.3004,-264.4 279.3004,-264.4"/>
<text text-anchor="middle" x="342.8317" y="-374.4901" font-family="Times,serif" font-size="25.00" fill="#000000">indyav_car</text>
</g>
<!-- BackWheelPlugin -->
<g id="node1" class="node">
<title>BackWheelPlugin</title>
<ellipse fill="none" stroke="#000000" cx="81.3004" cy="-797.0214" rx="81.1014" ry="18"/>
<text text-anchor="middle" x="81.3004" y="-792.8214" font-family="Times,serif" font-size="14.00" fill="#000000">BackWheelPlugin</text>
</g>
<!-- indyav_car.urdf.xacro -->
<g id="node2" class="node">
<title>indyav_car.urdf.xacro</title>
<ellipse fill="none" stroke="#000000" cx="373.3004" cy="-708.2214" rx="96.0958" ry="18"/>
<text text-anchor="middle" x="373.3004" y="-704.0214" font-family="Times,serif" font-size="14.00" fill="#000000">indyav_car.urdf.xacro</text>
</g>
<!-- BackWheelPlugin&#45;&gt;indyav_car.urdf.xacro -->
<g id="edge1" class="edge">
<title>BackWheelPlugin-&gt;indyav_car.urdf.xacro:w</title>
<path fill="none" stroke="#000000" d="M103.2199,-779.4773C136.0738,-754.9125 201.1688,-712.7797 265.9168,-708.5639"/>
<polygon fill="#000000" stroke="#000000" points="266.4213,-712.0493 276.3004,-708.2214 266.1904,-705.0531 266.4213,-712.0493"/>
<text text-anchor="middle" x="197.1556" y="-748.4214" font-family="Times,serif" font-size="14.00" fill="#000000">  included by  </text>
</g>
<!-- indyav_car.urdf -->
<g id="node7" class="node">
<title>indyav_car.urdf</title>
<ellipse fill="none" stroke="#000000" cx="373.3004" cy="-619.4214" rx="72.3766" ry="18"/>
<text text-anchor="middle" x="373.3004" y="-615.2214" font-family="Times,serif" font-size="14.00" fill="#000000">indyav_car.urdf</text>
</g>
<!-- indyav_car.urdf.xacro&#45;&gt;indyav_car.urdf -->
<g id="edge6" class="edge">
<title>indyav_car.urdf.xacro-&gt;indyav_car.urdf</title>
<path fill="none" stroke="#000000" d="M373.3004,-689.8219C373.3004,-677.7162 373.3004,-661.629 373.3004,-647.8887"/>
<polygon fill="#000000" stroke="#000000" points="376.8005,-647.4933 373.3004,-637.4934 369.8005,-647.4934 376.8005,-647.4933"/>
<text text-anchor="middle" x="423.2594" y="-659.6214" font-family="Times,serif" font-size="14.00" fill="#000000">  interpreted into  </text>
</g>
<!-- wheels.xacro -->
<g id="node3" class="node">
<title>wheels.xacro</title>
<ellipse fill="none" stroke="#000000" cx="242.3004" cy="-797.0214" rx="61.9176" ry="18"/>
<text text-anchor="middle" x="242.3004" y="-792.8214" font-family="Times,serif" font-size="14.00" fill="#000000">wheels.xacro</text>
</g>
<!-- wheels.xacro&#45;&gt;indyav_car.urdf.xacro -->
<g id="edge2" class="edge">
<title>wheels.xacro-&gt;indyav_car.urdf.xacro:nw</title>
<path fill="none" stroke="#000000" d="M254.1609,-779.1495C262.7165,-767.587 275.2517,-753.089 289.59,-744.2214 312.1241,-730.2849 329.1399,-743.3492 347.3858,-732.489"/>
<polygon fill="#000000" stroke="#000000" points="349.6337,-735.1734 355.3004,-726.2214 345.288,-729.6857 349.6337,-735.1734"/>
<text text-anchor="middle" x="330.1556" y="-748.4214" font-family="Times,serif" font-size="14.00" fill="#000000">  included by  </text>
</g>
<!-- utils.xacro -->
<g id="node4" class="node">
<title>utils.xacro</title>
<ellipse fill="none" stroke="#000000" cx="373.3004" cy="-797.0214" rx="51.562" ry="18"/>
<text text-anchor="middle" x="373.3004" y="-792.8214" font-family="Times,serif" font-size="14.00" fill="#000000">utils.xacro</text>
</g>
<!-- utils.xacro&#45;&gt;indyav_car.urdf.xacro -->
<g id="edge3" class="edge">
<title>utils.xacro-&gt;indyav_car.urdf.xacro:n</title>
<path fill="none" stroke="#000000" d="M373.3004,-778.9794C373.3004,-767.3544 373.3004,-751.6385 373.3004,-736.528"/>
<polygon fill="#000000" stroke="#000000" points="376.8005,-736.2213 373.3004,-726.2214 369.8005,-736.2214 376.8005,-736.2213"/>
<text text-anchor="middle" x="413.1556" y="-748.4214" font-family="Times,serif" font-size="14.00" fill="#000000">  included by  </text>
</g>
<!-- go_kart.xacro -->
<g id="node5" class="node">
<title>go_kart.xacro</title>
<ellipse fill="none" stroke="#000000" cx="507.3004" cy="-797.0214" rx="64.2902" ry="18"/>
<text text-anchor="middle" x="507.3004" y="-792.8214" font-family="Times,serif" font-size="14.00" fill="#000000">go_kart.xacro</text>
</g>
<!-- go_kart.xacro&#45;&gt;indyav_car.urdf.xacro -->
<g id="edge4" class="edge">
<title>go_kart.xacro-&gt;indyav_car.urdf.xacro:ne</title>
<path fill="none" stroke="#000000" d="M494.5524,-779.1601C485.4163,-767.6022 472.1401,-753.1054 457.3004,-744.2214 434.4742,-730.556 417.5231,-743.4842 399.2391,-732.5269"/>
<polygon fill="#000000" stroke="#000000" points="401.3078,-729.7004 391.3004,-726.2214 396.954,-735.1817 401.3078,-729.7004"/>
<text text-anchor="middle" x="518.1556" y="-748.4214" font-family="Times,serif" font-size="14.00" fill="#000000">  included by  </text>
</g>
<!-- gazebo_ros_p3d -->
<g id="node6" class="node">
<title>gazebo_ros_p3d</title>
<ellipse fill="none" stroke="#000000" cx="664.3004" cy="-797.0214" rx="74.147" ry="18"/>
<text text-anchor="middle" x="664.3004" y="-792.8214" font-family="Times,serif" font-size="14.00" fill="#000000">gazebo_ros_p3d</text>
</g>
<!-- gazebo_ros_p3d&#45;&gt;indyav_car.urdf.xacro -->
<g id="edge5" class="edge">
<title>gazebo_ros_p3d-&gt;indyav_car.urdf.xacro:e</title>
<path fill="none" stroke="#000000" d="M642.7893,-779.689C610.2187,-755.1589 545.3088,-712.8042 480.6676,-708.5658"/>
<polygon fill="#000000" stroke="#000000" points="480.4112,-705.0554 470.3004,-708.2214 480.1787,-712.0515 480.4112,-705.0554"/>
<text text-anchor="middle" x="656.1556" y="-748.4214" font-family="Times,serif" font-size="14.00" fill="#000000">  included by  </text>
</g>
<!-- Controller manager -->
<g id="node9" class="node">
<title>Controller manager</title>
<ellipse fill="none" stroke="#000000" cx="535.3004" cy="-519.2057" rx="86.2756" ry="18"/>
<text text-anchor="middle" x="535.3004" y="-515.0057" font-family="Times,serif" font-size="14.00" fill="#000000">Controller manager</text>
</g>
<!-- indyav_car.urdf&#45;&gt;Controller manager -->
<g id="edge8" class="edge">
<title>indyav_car.urdf-&gt;Controller manager</title>
<path fill="none" stroke="#000000" d="M400.4156,-602.6475C427.3531,-585.9836 468.8419,-560.318 498.6925,-541.852"/>
<polygon fill="#000000" stroke="#000000" points="500.8908,-544.6076 507.5538,-536.3702 497.2082,-538.6546 500.8908,-544.6076"/>
<text text-anchor="middle" x="483.0739" y="-570.8214" font-family="Times,serif" font-size="14.00" fill="#000000">  informs  </text>
</g>
<!-- Robot Spawner -->
<g id="node10" class="node">
<title>Robot Spawner</title>
<ellipse fill="none" stroke="#000000" cx="349.3004" cy="-519.2057" rx="70.6901" ry="18"/>
<text text-anchor="middle" x="349.3004" y="-515.0057" font-family="Times,serif" font-size="14.00" fill="#000000">Robot Spawner</text>
</g>
<!-- indyav_car.urdf&#45;&gt;Robot Spawner -->
<g id="edge9" class="edge">
<title>indyav_car.urdf-&gt;Robot Spawner</title>
<path fill="none" stroke="#000000" d="M368.8985,-601.0403C365.3124,-586.066 360.1884,-564.67 356.0791,-547.5112"/>
<polygon fill="#000000" stroke="#000000" points="359.4073,-546.3801 353.6745,-537.4703 352.5998,-548.0105 359.4073,-546.3801"/>
</g>
<!-- actuators.yaml -->
<g id="node8" class="node">
<title>actuators.yaml</title>
<ellipse fill="none" stroke="#000000" cx="535.3004" cy="-619.4214" rx="67.7333" ry="18"/>
<text text-anchor="middle" x="535.3004" y="-615.2214" font-family="Times,serif" font-size="14.00" fill="#000000">actuators.yaml</text>
</g>
<!-- actuators.yaml&#45;&gt;Controller manager -->
<g id="edge7" class="edge">
<title>actuators.yaml-&gt;Controller manager</title>
<path fill="none" stroke="#000000" d="M535.3004,-601.0403C535.3004,-586.066 535.3004,-564.67 535.3004,-547.5112"/>
<polygon fill="#000000" stroke="#000000" points="538.8005,-547.4702 535.3004,-537.4703 531.8005,-547.4703 538.8005,-547.4702"/>
<text text-anchor="middle" x="564.0739" y="-570.8214" font-family="Times,serif" font-size="14.00" fill="#000000">  informs  </text>
</g>
<!-- right_wheel -->
<g id="node14" class="node">
<title>right_wheel</title>
<ellipse fill="#ffffff" stroke="#ffffff" cx="535.3004" cy="-313.695" rx="170.4675" ry="41.0911"/>
<text text-anchor="middle" x="535.3004" y="-326.295" font-family="Times,serif" font-size="14.00" fill="#000000">right front wheel controller</text>
<text text-anchor="middle" x="535.3004" y="-309.495" font-family="Times,serif" font-size="14.00" fill="#000000">(controlls the steering angle of the right </text>
<text text-anchor="middle" x="535.3004" y="-292.695" font-family="Times,serif" font-size="14.00" fill="#000000">front wheel)</text>
</g>
<!-- Controller manager&#45;&gt;right_wheel -->
<g id="edge11" class="edge">
<title>Controller manager-&gt;right_wheel</title>
<path fill="none" stroke="#000000" d="M535.3004,-500.968C535.3004,-470.8021 535.3004,-409.4555 535.3004,-365.1817"/>
<polygon fill="#000000" stroke="#000000" points="538.8005,-365.1691 535.3004,-355.1692 531.8005,-365.1692 538.8005,-365.1691"/>
<text text-anchor="middle" x="566.7899" y="-459.1901" font-family="Times,serif" font-size="14.00" fill="#000000">  manages  </text>
</g>
<!-- left_wheel -->
<g id="node15" class="node">
<title>left_wheel</title>
<ellipse fill="#ffffff" stroke="#ffffff" cx="1152.3004" cy="-313.695" rx="164.9572" ry="41.0911"/>
<text text-anchor="middle" x="1152.3004" y="-326.295" font-family="Times,serif" font-size="14.00" fill="#000000">left front wheel controller</text>
<text text-anchor="middle" x="1152.3004" y="-309.495" font-family="Times,serif" font-size="14.00" fill="#000000">(controlls the steering angle of the left </text>
<text text-anchor="middle" x="1152.3004" y="-292.695" font-family="Times,serif" font-size="14.00" fill="#000000">front wheel)</text>
</g>
<!-- Controller manager&#45;&gt;left_wheel -->
<g id="edge12" class="edge">
<title>Controller manager-&gt;left_wheel</title>
<path fill="none" stroke="#000000" d="M583.8472,-504.2443C602.3118,-499.0144 623.6357,-493.5234 643.3004,-489.7901 790.7655,-461.7938 839.9837,-505.2843 978.3004,-446.9901 1026.0223,-426.8775 1072.1785,-390.4795 1104.9475,-360.7946"/>
<polygon fill="#000000" stroke="#000000" points="1107.5685,-363.1395 1112.5644,-353.7965 1102.8326,-357.9848 1107.5685,-363.1395"/>
<text text-anchor="middle" x="985.7899" y="-459.1901" font-family="Times,serif" font-size="14.00" fill="#000000">  manages  </text>
</g>
<!-- invis -->
<!-- Robot Spawner&#45;&gt;invis -->
<g id="edge10" class="edge">
<title>Robot Spawner-&gt;invis</title>
<path fill="none" stroke="#000000" d="M346.4607,-500.968C340.8625,-465.0156 328.368,-384.7731 321.6967,-341.929"/>
<polygon fill="#000000" stroke="#000000" points="325.1308,-341.2343 320.1339,-331.8919 318.2142,-342.3113 325.1308,-341.2343"/>
<text text-anchor="middle" x="362.9056" y="-459.1901" font-family="Times,serif" font-size="14.00" fill="#000000">spawns</text>
</g>
<!-- back_wheel -->
<g id="node11" class="node">
<title>back_wheel</title>
<ellipse fill="#ffffff" stroke="#ffffff" cx="1418.3004" cy="-313.695" rx="83.1852" ry="29.3315"/>
<text text-anchor="middle" x="1418.3004" y="-317.895" font-family="Times,serif" font-size="14.00" fill="#000000">BackWheelPlugin</text>
<text text-anchor="middle" x="1418.3004" y="-301.095" font-family="Times,serif" font-size="14.00" fill="#000000">(Applies Thrust)</text>
</g>
<!-- p3d -->
<g id="node13" class="node">
<title>p3d</title>
<ellipse fill="#ffffff" stroke="#ffffff" cx="846.3004" cy="-313.695" rx="122.8809" ry="29.3315"/>
<text text-anchor="middle" x="846.3004" y="-317.895" font-family="Times,serif" font-size="14.00" fill="#000000">p3d Plugin </text>
<text text-anchor="middle" x="846.3004" y="-301.095" font-family="Times,serif" font-size="14.00" fill="#000000">(give the gound truth odom)</text>
</g>
<!-- /indyav_car/sensorsposition/ground_truth_odometry -->
<g id="node16" class="node">
<title>/indyav_car/sensorsposition/ground_truth_odometry</title>
<ellipse fill="none" stroke="#000000" cx="846.3004" cy="-195.6" rx="213.5973" ry="18"/>
<text text-anchor="middle" x="846.3004" y="-191.4" font-family="Times,serif" font-size="14.00" fill="#000000">/indyav_car/sensorsposition/ground_truth_odometry</text>
</g>
<!-- p3d&#45;&gt;/indyav_car/sensorsposition/ground_truth_odometry -->
<g id="edge13" class="edge">
<title>p3d-&gt;/indyav_car/sensorsposition/ground_truth_odometry</title>
<path fill="none" stroke="#000000" d="M846.3004,-284.1993C846.3004,-265.6957 846.3004,-241.9757 846.3004,-223.736"/>
<polygon fill="#000000" stroke="#000000" points="849.8005,-223.7109 846.3004,-213.7109 842.8005,-223.711 849.8005,-223.7109"/>
<text text-anchor="middle" x="873.1342" y="-235.8" font-family="Times,serif" font-size="14.00" fill="#000000">Publishes</text>
</g>
<!-- ground_truth_tf -->
<g id="node17" class="node">
<title>ground_truth_tf</title>
<ellipse fill="none" stroke="#000000" cx="846.3004" cy="-106.8" rx="72.3768" ry="18"/>
<text text-anchor="middle" x="846.3004" y="-102.6" font-family="Times,serif" font-size="14.00" fill="#000000">ground_truth_tf</text>
</g>
<!-- /indyav_car/sensorsposition/ground_truth_odometry&#45;&gt;ground_truth_tf -->
<g id="edge14" class="edge">
<title>/indyav_car/sensorsposition/ground_truth_odometry-&gt;ground_truth_tf</title>
<path fill="none" stroke="#000000" d="M846.3004,-177.2006C846.3004,-165.0949 846.3004,-149.0076 846.3004,-135.2674"/>
<polygon fill="#000000" stroke="#000000" points="849.8005,-134.872 846.3004,-124.872 842.8005,-134.8721 849.8005,-134.872"/>
<text text-anchor="middle" x="876.6265" y="-147" font-family="Times,serif" font-size="14.00" fill="#000000">Subscribes</text>
</g>
<!-- Transform: map &lt;=&gt; base_link -->
<g id="node18" class="node">
<title>Transform: map &lt;=&gt; base_link</title>
<ellipse fill="none" stroke="#000000" cx="846.3004" cy="-18" rx="131.8849" ry="18"/>
<text text-anchor="middle" x="846.3004" y="-13.8" font-family="Times,serif" font-size="14.00" fill="#000000">Transform: map &lt;=&gt; base_link</text>
</g>
<!-- ground_truth_tf&#45;&gt;Transform: map &lt;=&gt; base_link -->
<g id="edge15" class="edge">
<title>ground_truth_tf-&gt;Transform: map &lt;=&gt; base_link</title>
<path fill="none" stroke="#000000" d="M846.3004,-88.4006C846.3004,-76.2949 846.3004,-60.2076 846.3004,-46.4674"/>
<polygon fill="#000000" stroke="#000000" points="849.8005,-46.072 846.3004,-36.072 842.8005,-46.0721 849.8005,-46.072"/>
<text text-anchor="middle" x="877.0108" y="-58.2" font-family="Times,serif" font-size="14.00" fill="#000000">Broadcasts</text>
</g>
<!-- right_command -->
<g id="node19" class="node">
<title>right_command</title>
<ellipse fill="none" stroke="#000000" cx="808.3004" cy="-519.2057" rx="156.3885" ry="29.3315"/>
<text text-anchor="middle" x="808.3004" y="-523.4057" font-family="Times,serif" font-size="14.00" fill="#000000">/car/simulated_hardware_controllers</text>
<text text-anchor="middle" x="808.3004" y="-506.6057" font-family="Times,serif" font-size="14.00" fill="#000000">/steering/right/command</text>
</g>
<!-- right_command&#45;&gt;right_wheel -->
<g id="edge16" class="edge">
<title>right_command-&gt;right_wheel</title>
<path fill="none" stroke="#000000" d="M770.341,-490.6303C725.1897,-456.6411 649.2376,-399.4654 595.9218,-359.33"/>
<polygon fill="#000000" stroke="#000000" points="597.9915,-356.5072 587.8972,-353.2891 593.7815,-362.0997 597.9915,-356.5072"/>
<text text-anchor="middle" x="772.6265" y="-459.1901" font-family="Times,serif" font-size="14.00" fill="#000000">Subscribes</text>
</g>
<!-- simulated steering driver -->
<g id="node20" class="node">
<title>simulated steering driver</title>
<ellipse fill="none" stroke="#000000" cx="977.3004" cy="-619.4214" rx="107.0782" ry="18"/>
<text text-anchor="middle" x="977.3004" y="-615.2214" font-family="Times,serif" font-size="14.00" fill="#000000">simulated steering driver</text>
</g>
<!-- simulated steering driver&#45;&gt;right_command -->
<g id="edge17" class="edge">
<title>simulated steering driver-&gt;right_command</title>
<path fill="none" stroke="#000000" d="M947.8629,-601.9651C924.9933,-588.4036 892.5927,-569.1904 864.7665,-552.6896"/>
<polygon fill="#000000" stroke="#000000" points="866.2972,-549.5282 855.9106,-547.4381 862.7268,-555.5492 866.2972,-549.5282"/>
<text text-anchor="middle" x="939.1342" y="-570.8214" font-family="Times,serif" font-size="14.00" fill="#000000">Publishes</text>
</g>
<!-- left_command -->
<g id="node21" class="node">
<title>left_command</title>
<ellipse fill="none" stroke="#000000" cx="1143.3004" cy="-519.2057" rx="156.3885" ry="29.3315"/>
<text text-anchor="middle" x="1143.3004" y="-523.4057" font-family="Times,serif" font-size="14.00" fill="#000000">/car/simulated_hardware_controllers</text>
<text text-anchor="middle" x="1143.3004" y="-506.6057" font-family="Times,serif" font-size="14.00" fill="#000000">/steering/left/command</text>
</g>
<!-- simulated steering driver&#45;&gt;left_command -->
<g id="edge19" class="edge">
<title>simulated steering driver-&gt;left_command</title>
<path fill="none" stroke="#000000" d="M1006.2154,-601.9651C1028.679,-588.4036 1060.5044,-569.1904 1087.8368,-552.6896"/>
<polygon fill="#000000" stroke="#000000" points="1089.7835,-555.6028 1096.5355,-547.4381 1086.1656,-549.6101 1089.7835,-555.6028"/>
<text text-anchor="middle" x="1087.1342" y="-570.8214" font-family="Times,serif" font-size="14.00" fill="#000000">Publishes</text>
</g>
<!-- left_command&#45;&gt;left_wheel -->
<g id="edge18" class="edge">
<title>left_command-&gt;left_wheel</title>
<path fill="none" stroke="#000000" d="M1144.5899,-489.761C1146.0088,-457.3623 1148.3161,-404.6746 1150.0376,-365.3649"/>
<polygon fill="#000000" stroke="#000000" points="1153.5431,-365.3147 1150.4841,-355.1711 1146.5498,-365.0084 1153.5431,-365.3147"/>
<text text-anchor="middle" x="1175.6265" y="-459.1901" font-family="Times,serif" font-size="14.00" fill="#000000">Subscribes</text>
</g>
<!-- /steering -->
<g id="node22" class="node">
<title>/steering</title>
<ellipse fill="none" stroke="#000000" cx="977.3004" cy="-708.2214" rx="44.0775" ry="18"/>
<text text-anchor="middle" x="977.3004" y="-704.0214" font-family="Times,serif" font-size="14.00" fill="#000000">/steering</text>
</g>
<!-- /steering&#45;&gt;simulated steering driver -->
<g id="edge20" class="edge">
<title>/steering-&gt;simulated steering driver</title>
<path fill="none" stroke="#000000" d="M977.3004,-689.8219C977.3004,-677.7162 977.3004,-661.629 977.3004,-647.8887"/>
<polygon fill="#000000" stroke="#000000" points="980.8005,-647.4933 977.3004,-637.4934 973.8005,-647.4934 980.8005,-647.4933"/>
<text text-anchor="middle" x="1007.6265" y="-659.6214" font-family="Times,serif" font-size="14.00" fill="#000000">Subscribes</text>
</g>
<!-- /throttle -->
<g id="node23" class="node">
<title>/throttle</title>
<ellipse fill="none" stroke="#000000" cx="1418.3004" cy="-519.2057" rx="41.7269" ry="18"/>
<text text-anchor="middle" x="1418.3004" y="-515.0057" font-family="Times,serif" font-size="14.00" fill="#000000">/throttle</text>
</g>
<!-- /throttle&#45;&gt;back_wheel -->
<g id="edge21" class="edge">
<title>/throttle-&gt;back_wheel</title>
<path fill="none" stroke="#000000" d="M1418.3004,-500.968C1418.3004,-468.0463 1418.3004,-397.9869 1418.3004,-353.5123"/>
<polygon fill="#000000" stroke="#000000" points="1421.8005,-353.3414 1418.3004,-343.3415 1414.8005,-353.3415 1421.8005,-353.3414"/>
<text text-anchor="middle" x="1448.6265" y="-459.1901" font-family="Times,serif" font-size="14.00" fill="#000000">Subscribes</text>
</g>
</g>
</svg>