<?xml version="1.0" encoding="UTF-8" standalone="no"?>
<svg
   xmlns:dc="http://purl.org/dc/elements/1.1/"
   xmlns:cc="http://creativecommons.org/ns#"
   xmlns:rdf="http://www.w3.org/1999/02/22-rdf-syntax-ns#"
   xmlns:svg="http://www.w3.org/2000/svg"
   xmlns="http://www.w3.org/2000/svg"
   viewBox="0 0 430.93332 82.933334"
   height="82.933334"
   width="430.93332"
   xml:space="preserve"
   id="svg2"
   version="1.1"><metadata
     id="metadata8"><rdf:RDF><cc:Work
         rdf:about=""><dc:format>image/svg+xml</dc:format><dc:type
           rdf:resource="http://purl.org/dc/dcmitype/StillImage" /></cc:Work></rdf:RDF></metadata><defs
     id="defs6" /><g
     transform="matrix(1.3333333,0,0,-1.3333333,0,82.933333)"
     id="g10"><g
       transform="scale(0.1)"
       id="g12"><path
         id="path14"
         style="fill:#214e8d;fill-opacity:1;fill-rule:evenodd;stroke:none"
         d="M -0.00390625,93.7695 C 227.605,298.059 383.336,93.7695 574.996,93.7695 c 192.305,0 349.582,207.6485 576.894,0 C 934.039,236.945 767.301,10.0508 574.996,0 383.336,10.0508 208.688,241.125 -0.00390625,93.7695" /><path
         id="path16"
         style="fill:#214e8d;fill-opacity:1;fill-rule:evenodd;stroke:none"
         d="M 605.633,116.445 C 780.008,168.039 797.457,332.109 1014.18,195.371 836.5,248.449 714.422,96.1445 605.633,116.445" /><path
         id="path18"
         style="fill:#214e8d;fill-opacity:1;fill-rule:evenodd;stroke:none"
         d="M 546.266,116.445 C 371.891,168.039 354.441,332.109 137.723,195.371 315.398,248.449 437.477,96.1445 546.266,116.445" /><path
         id="path20"
         style="fill:#31b7e6;fill-opacity:1;fill-rule:evenodd;stroke:none"
         d="m 568.348,404.172 -83.352,-48 -75.398,60.363 C 321.734,400.461 177.965,293.516 133.387,212.355 201.676,278.926 295.164,323.508 386.5,329.777 L 568.348,197.871 v 206.301" /><path
         id="path22"
         style="fill:#31b7e6;fill-opacity:1;fill-rule:evenodd;stroke:none"
         d="m 418.629,424.582 c 2.805,46.199 38.176,127.07 149.719,124.715 v -128.32 l -82.024,-48.504 z m 75.566,34.395 c 14.27,0 25.832,-11.563 25.832,-25.821 0,-14.269 -11.562,-25.832 -25.832,-25.832 -14.257,0 -25.82,11.563 -25.82,25.832 0,14.258 11.563,25.821 25.82,25.821" /><path
         id="path24"
         style="fill:#31b7e6;fill-opacity:1;fill-rule:evenodd;stroke:none"
         d="m 583.551,404.172 83.351,-48 75.391,60.363 C 830.164,400.461 973.934,293.516 1018.5,212.355 950.223,278.926 856.734,323.508 765.398,329.777 L 583.551,197.871 v 206.301" /><path
         id="path26"
         style="fill:#31b7e6;fill-opacity:1;fill-rule:evenodd;stroke:none"
         d="m 733.258,424.582 c -2.793,46.199 -38.164,127.07 -149.707,124.715 v -128.32 l 82.023,-48.504 z m -75.555,34.395 c -14.269,0 -25.82,-11.563 -25.82,-25.821 0,-14.269 11.551,-25.832 25.82,-25.832 14.258,0 25.82,11.563 25.82,25.832 0,14.258 -11.562,25.821 -25.82,25.821" /><path
         id="path28"
         style="fill:#214e8d;fill-opacity:1;fill-rule:nonzero;stroke:none"
         d="m 1470.78,403.605 c -45.27,0 -76.54,-6.3 -93.8,-18.898 -12.6,-9.344 -18.91,-23.797 -18.91,-43.398 V 104.707 h -72.79 v 236.152 c 0,89.895 61.83,134.844 185.5,134.844 v -72.098" /><path
         id="path30"
         style="fill:#214e8d;fill-opacity:1;fill-rule:nonzero;stroke:none"
         d="m 1778.06,289.855 c 0,37.911 -6.3,65.301 -18.89,82.149 -15.4,21.074 -42.47,31.601 -81.2,31.601 -38.74,0 -65.8,-10.527 -81.21,-31.601 -12.59,-16.848 -18.89,-44.238 -18.89,-82.149 0,-37.921 6.3,-65.304 18.89,-82.148 15.41,-20.605 42.47,-30.898 81.21,-30.898 38.73,0 65.8,10.293 81.2,30.898 12.59,16.844 18.89,44.227 18.89,82.148 z m 72.81,0 c 0,-123.437 -57.64,-185.148 -172.9,-185.148 -115.75,0 -173.6,61.711 -173.6,185.148 0,123.895 57.85,185.848 173.6,185.848 115.26,0 172.9,-61.953 172.9,-185.848" /><path
         id="path32"
         style="fill:#214e8d;fill-opacity:1;fill-rule:nonzero;stroke:none"
         d="m 2180.57,289.855 c 0,37.911 -6.31,65.301 -18.9,82.149 -15.87,21.074 -43.17,31.601 -81.9,31.601 h -100.1 v -113.75 c 0,-37.453 6.3,-64.609 18.9,-81.457 15.4,-21.062 42.46,-31.589 81.2,-31.589 38.73,0 66.03,10.527 81.9,31.589 12.59,16.848 18.9,44.004 18.9,81.457 z m 72.8,0 c 0,-123.437 -57.87,-185.148 -173.6,-185.148 -115.27,0 -172.9,61.828 -172.9,185.5 v 331.797 h 72.8 V 475.703 h 100.1 c 115.73,0 173.6,-61.953 173.6,-185.848" /><path
         id="path34"
         style="fill:#214e8d;fill-opacity:1;fill-rule:nonzero;stroke:none"
         d="m 2558.56,289.855 c 0,37.911 -6.3,65.301 -18.89,82.149 -15.41,21.074 -42.48,31.601 -81.21,31.601 -38.74,0 -65.8,-10.527 -81.2,-31.601 -12.59,-16.848 -18.89,-44.238 -18.89,-82.149 0,-37.921 6.3,-65.304 18.89,-82.148 15.4,-20.605 42.46,-30.898 81.2,-30.898 38.73,0 65.8,10.293 81.21,30.898 12.59,16.844 18.89,44.227 18.89,82.148 z m 72.8,0 c 0,-123.437 -57.63,-185.148 -172.9,-185.148 -115.74,0 -173.59,61.711 -173.59,185.148 0,123.895 57.85,185.848 173.59,185.848 115.27,0 172.9,-61.953 172.9,-185.848" /><path
         id="path36"
         style="fill:#214e8d;fill-opacity:1;fill-rule:nonzero;stroke:none"
         d="m 2871.46,104.004 c -123.67,0 -185.51,45.031 -185.51,135.098 v 382.902 h 72.81 V 475.703 h 112.7 v -72.098 h -112.7 V 238.789 c 0,-19.726 6.3,-34.277 18.89,-43.66 17.27,-12.688 48.54,-19.024 93.81,-19.024 v -72.101" /><path
         id="path38"
         style="fill:#31b7e6;fill-opacity:1;fill-rule:nonzero;stroke:none"
         d="m 3231.95,104.707 h -86.8 l -81.89,123.195 -81.91,-123.195 h -87.5 l 125.31,189.356 -119.71,181.64 h 87.5 l 76.31,-115.496 76.3,115.496 h 87.5 l -120.4,-181.64 125.29,-189.356" /></g></g></svg>