<?xml version="1.0" encoding="UTF-8" standalone="no"?>
<svg
   xmlns:dc="http://purl.org/dc/elements/1.1/"
   xmlns:cc="http://creativecommons.org/ns#"
   xmlns:rdf="http://www.w3.org/1999/02/22-rdf-syntax-ns#"
   xmlns:svg="http://www.w3.org/2000/svg"
   xmlns="http://www.w3.org/2000/svg"
   viewBox="0 0 273.18668 200.56"
   height="200.56"
   width="273.18668"
   xml:space="preserve"
   id="svg2"
   version="1.1"><metadata
     id="metadata8"><rdf:RDF><cc:Work
         rdf:about=""><dc:format>image/svg+xml</dc:format><dc:type
           rdf:resource="http://purl.org/dc/dcmitype/StillImage" /></cc:Work></rdf:RDF></metadata><defs
     id="defs6" /><g
     transform="matrix(1.3333333,0,0,-1.3333333,0,200.56)"
     id="g10"><g
       transform="scale(0.1)"
       id="g12"><path
         id="path14"
         style="fill:#214e8d;fill-opacity:1;fill-rule:evenodd;stroke:none"
         d="M 0.00390625,693.91 C 404.848,1057.28 681.848,693.91 1022.78,693.91 c 342.04,0 621.78,369.34 1026.13,0 C 1661.4,948.566 1364.82,544.984 1022.78,527.113 681.848,544.984 371.203,956.008 0.00390625,693.91" /><path
         id="path16"
         style="fill:#214e8d;fill-opacity:1;fill-rule:evenodd;stroke:none"
         d="m 1077.26,734.242 c 310.15,91.758 341.21,383.598 726.7,140.391 -316.06,94.394 -533.2,-176.504 -726.7,-140.391" /><path
         id="path18"
         style="fill:#214e8d;fill-opacity:1;fill-rule:evenodd;stroke:none"
         d="M 971.652,734.242 C 661.496,826 630.441,1117.84 244.965,874.633 561.008,969.027 778.148,698.129 971.652,734.242" /><path
         id="path20"
         style="fill:#31b7e6;fill-opacity:1;fill-rule:evenodd;stroke:none"
         d="M 1010.94,1246.02 862.68,1160.64 728.566,1268.01 C 572.277,1239.42 316.555,1049.19 237.258,904.828 358.734,1023.25 525.012,1102.54 687.473,1113.7 L 1010.94,879.066 v 366.954" /><path
         id="path22"
         style="fill:#31b7e6;fill-opacity:1;fill-rule:evenodd;stroke:none"
         d="m 744.641,1282.32 c 4.98,82.18 67.882,226.03 266.299,221.84 v -228.25 l -145.909,-86.27 z m 134.406,61.18 c 25.367,0 45.937,-20.57 45.937,-45.93 0,-25.37 -20.57,-45.94 -45.937,-45.94 -25.363,0 -45.93,20.57 -45.93,45.94 0,25.36 20.567,45.93 45.93,45.93" /><path
         id="path24"
         style="fill:#31b7e6;fill-opacity:1;fill-rule:evenodd;stroke:none"
         d="m 1037.97,1246.02 148.26,-85.38 134.1,107.37 c 156.31,-28.59 412.03,-218.82 491.32,-363.182 C 1690.18,1023.25 1523.9,1102.54 1361.43,1113.7 L 1037.97,879.066 v 366.954" /><path
         id="path26"
         style="fill:#31b7e6;fill-opacity:1;fill-rule:evenodd;stroke:none"
         d="m 1304.27,1282.32 c -4.97,82.18 -67.88,226.03 -266.3,221.84 v -228.25 l 145.91,-86.27 z m -134.4,61.18 c -25.38,0 -45.93,-20.57 -45.93,-45.93 0,-25.37 20.55,-45.94 45.93,-45.94 25.37,0 45.92,20.57 45.92,45.94 0,25.36 -20.55,45.93 -45.92,45.93" /><path
         id="path28"
         style="fill:#214e8d;fill-opacity:1;fill-rule:nonzero;stroke:none"
         d="m 561.262,171.199 c -25.867,0 -43.731,-3.59 -53.594,-10.801 -7.207,-5.328 -10.801,-13.589 -10.801,-24.796 V 0.398438 H 455.266 V 135.34 c 0,51.371 35.332,77.07 105.996,77.07 v -41.211" /><path
         id="path30"
         style="fill:#214e8d;fill-opacity:1;fill-rule:nonzero;stroke:none"
         d="m 736.859,106.199 c 0,21.66 -3.605,37.313 -10.8,46.949 -8.801,12.043 -24.27,18.051 -46.399,18.051 -22.137,0 -37.605,-6.008 -46.406,-18.051 -7.195,-9.636 -10.801,-25.289 -10.801,-46.949 0,-21.6677 3.606,-37.3201 10.801,-46.9373 8.801,-11.7812 24.269,-17.6601 46.406,-17.6601 22.129,0 37.598,5.8789 46.399,17.6601 7.195,9.6172 10.8,25.2696 10.8,46.9373 z m 41.602,0 C 778.461,35.6719 745.52,0.398438 679.66,0.398438 c -66.14,0 -99.207,35.273462 -99.207,105.800562 0,70.801 33.067,106.211 99.207,106.211 65.86,0 98.801,-35.41 98.801,-106.211" /><path
         id="path32"
         style="fill:#214e8d;fill-opacity:1;fill-rule:nonzero;stroke:none"
         d="m 966.859,106.199 c 0,21.66 -3.593,37.313 -10.8,46.949 -9.067,12.043 -24.668,18.051 -46.797,18.051 h -57.199 v -65 c 0,-21.3982 3.593,-36.9099 10.8,-46.5388 8.797,-12.0391 24.258,-18.0586 46.399,-18.0586 22.129,0 37.73,6.0195 46.797,18.0586 7.207,9.6289 10.8,25.1406 10.8,46.5388 z m 41.601,0 c 0,-70.5271 -33.065,-105.800562 -99.198,-105.800562 -65.871,0 -98.801,35.339862 -98.801,105.999562 v 189.614 h 41.602 V 212.41 h 57.199 c 66.133,0 99.198,-35.41 99.198,-106.211" /><path
         id="path34"
         style="fill:#214e8d;fill-opacity:1;fill-rule:nonzero;stroke:none"
         d="m 1182.85,106.199 c 0,21.66 -3.6,37.313 -10.8,46.949 -8.8,12.043 -24.26,18.051 -46.39,18.051 -22.14,0 -37.61,-6.008 -46.41,-18.051 -7.2,-9.636 -10.8,-25.289 -10.8,-46.949 0,-21.6677 3.6,-37.3201 10.8,-46.9373 8.8,-11.7812 24.27,-17.6601 46.41,-17.6601 22.13,0 37.59,5.8789 46.39,17.6601 7.2,9.6172 10.8,25.2696 10.8,46.9373 z m 41.61,0 c 0,-70.5271 -32.94,-105.800562 -98.8,-105.800562 -66.15,0 -99.21,35.273462 -99.21,105.800562 0,70.801 33.06,106.211 99.21,106.211 65.86,0 98.8,-35.41 98.8,-106.211" /><path
         id="path36"
         style="fill:#214e8d;fill-opacity:1;fill-rule:nonzero;stroke:none"
         d="m 1361.65,0 c -70.66,0 -105.99,25.7383 -105.99,77.1992 V 296.012 h 41.6 V 212.41 h 64.39 v -41.211 h -64.39 V 77.0195 c 0,-11.2695 3.59,-19.5898 10.8,-24.9492 9.86,-7.25 27.72,-10.8711 53.59,-10.8711 L 1361.65,0" /><path
         id="path38"
         style="fill:#31b7e6;fill-opacity:1;fill-rule:nonzero;stroke:none"
         d="m 1567.66,0.398438 h -49.6 L 1471.25,70.8008 1424.46,0.398438 h -50 l 71.6,108.210562 -68.4,103.801 h 50 l 43.59,-66.012 43.61,66.012 h 50 l -68.8,-103.801 71.6,-108.210562" /></g></g></svg>
