<?xml version="1.0" encoding="UTF-8" standalone="no"?>
<svg
   xmlns:dc="http://purl.org/dc/elements/1.1/"
   xmlns:cc="http://creativecommons.org/ns#"
   xmlns:rdf="http://www.w3.org/1999/02/22-rdf-syntax-ns#"
   xmlns:svg="http://www.w3.org/2000/svg"
   xmlns="http://www.w3.org/2000/svg"
   viewBox="0 0 317.51999 237.13333"
   height="237.13333"
   width="317.51999"
   xml:space="preserve"
   id="svg2"
   version="1.1"><metadata
     id="metadata8"><rdf:RDF><cc:Work
         rdf:about=""><dc:format>image/svg+xml</dc:format><dc:type
           rdf:resource="http://purl.org/dc/dcmitype/StillImage" /></cc:Work></rdf:RDF></metadata><defs
     id="defs6" /><g
     transform="matrix(1.3333333,0,0,-1.3333333,0,237.13333)"
     id="g10"><g
       transform="scale(0.1)"
       id="g12"><path
         id="path14"
         style="fill:#274d84;fill-opacity:1;fill-rule:evenodd;stroke:none"
         d="m 166.234,894.406 c 404.844,363.374 681.848,0 1022.776,0 342.04,0 621.79,369.334 1026.13,0 C 1827.63,1149.07 1531.05,745.48 1189.01,727.609 848.082,745.48 537.438,1156.51 166.234,894.406" /><path
         id="path16"
         style="fill:#274d84;fill-opacity:1;fill-rule:evenodd;stroke:none"
         d="m 1243.49,934.738 c 310.16,91.762 341.21,383.602 726.7,140.392 -316.05,94.39 -533.19,-176.505 -726.7,-140.392" /><path
         id="path18"
         style="fill:#274d84;fill-opacity:1;fill-rule:evenodd;stroke:none"
         d="M 1137.89,934.738 C 827.73,1026.5 796.676,1318.34 411.195,1075.13 727.242,1169.52 944.379,898.625 1137.89,934.738" /><path
         id="path20"
         style="fill:#40c1ea;fill-opacity:1;fill-rule:evenodd;stroke:none"
         d="m 1177.17,1446.52 -148.26,-85.38 -134.109,107.37 c -156.289,-28.6 -412.012,-218.82 -491.309,-363.19 121.473,118.42 287.754,197.72 450.215,208.87 l 323.463,-234.63 v 366.96" /><path
         id="path22"
         style="fill:#40c1ea;fill-opacity:1;fill-rule:evenodd;stroke:none"
         d="m 910.875,1482.82 c 4.98,82.17 67.879,226.03 266.295,221.84 v -228.25 l -145.9,-86.27 z M 1045.28,1544 c 25.37,0 45.94,-20.57 45.94,-45.93 0,-25.37 -20.57,-45.94 -45.94,-45.94 -25.36,0 -45.928,20.57 -45.928,45.94 0,25.36 20.568,45.93 45.928,45.93" /><path
         id="path24"
         style="fill:#40c1ea;fill-opacity:1;fill-rule:evenodd;stroke:none"
         d="m 1204.2,1446.52 148.27,-85.38 134.1,107.37 c 156.31,-28.6 412.02,-218.82 491.32,-363.19 -121.48,118.42 -287.76,197.72 -450.23,208.87 L 1204.2,1079.56 v 366.96" /><path
         id="path26"
         style="fill:#40c1ea;fill-opacity:1;fill-rule:evenodd;stroke:none"
         d="m 1470.5,1482.82 c -4.97,82.17 -67.88,226.03 -266.3,221.84 v -228.25 l 145.91,-86.27 z M 1336.1,1544 c -25.37,0 -45.93,-20.57 -45.93,-45.93 0,-25.37 20.56,-45.94 45.93,-45.94 25.37,0 45.93,20.57 45.93,45.94 0,25.36 -20.56,45.93 -45.93,45.93" /><path
         id="path28"
         style="fill:#274d84;fill-opacity:1;fill-rule:nonzero;stroke:none"
         d="m 727.496,371.699 c -25.871,0 -43.73,-3.59 -53.594,-10.801 -7.207,-5.328 -10.8,-13.589 -10.8,-24.796 V 200.898 H 621.5 V 335.84 c 0,51.371 35.332,77.058 105.996,77.058 v -41.199" /><path
         id="path30"
         style="fill:#274d84;fill-opacity:1;fill-rule:nonzero;stroke:none"
         d="m 903.09,306.699 c 0,21.66 -3.602,37.313 -10.801,46.949 -8.797,12.043 -24.266,18.051 -46.394,18.051 -22.141,0 -37.61,-6.008 -46.407,-18.051 -7.199,-9.636 -10.8,-25.289 -10.8,-46.949 0,-21.668 3.601,-37.32 10.8,-46.937 8.797,-11.782 24.266,-17.66 46.407,-17.66 22.128,0 37.597,5.878 46.394,17.66 7.199,9.617 10.801,25.269 10.801,46.937 z m 41.601,0 c 0,-70.539 -32.937,-105.801 -98.796,-105.801 -66.145,0 -99.211,35.262 -99.211,105.801 0,70.801 33.066,106.199 99.211,106.199 65.859,0 98.796,-35.398 98.796,-106.199" /><path
         id="path32"
         style="fill:#274d84;fill-opacity:1;fill-rule:nonzero;stroke:none"
         d="m 1133.09,306.699 c 0,21.66 -3.59,37.313 -10.8,46.949 -9.06,12.043 -24.67,18.051 -46.8,18.051 h -57.19 v -65 c 0,-21.398 3.59,-36.91 10.8,-46.539 8.8,-12.039 24.25,-18.058 46.39,-18.058 22.13,0 37.74,6.019 46.8,18.058 7.21,9.629 10.8,25.141 10.8,46.539 z m 41.6,0 c 0,-70.539 -33.06,-105.801 -99.2,-105.801 -65.87,0 -98.795,35.332 -98.795,106 v 189.614 h 41.605 v -83.614 h 57.19 c 66.14,0 99.2,-35.398 99.2,-106.199" /><path
         id="path34"
         style="fill:#274d84;fill-opacity:1;fill-rule:nonzero;stroke:none"
         d="m 1349.09,306.699 c 0,21.66 -3.61,37.313 -10.8,46.949 -8.8,12.043 -24.27,18.051 -46.4,18.051 -22.14,0 -37.61,-6.008 -46.41,-18.051 -7.19,-9.636 -10.8,-25.289 -10.8,-46.949 0,-21.668 3.61,-37.32 10.8,-46.937 8.8,-11.782 24.27,-17.66 46.41,-17.66 22.13,0 37.6,5.878 46.4,17.66 7.19,9.617 10.8,25.269 10.8,46.937 z m 41.6,0 c 0,-70.539 -32.94,-105.801 -98.8,-105.801 -66.14,0 -99.21,35.262 -99.21,105.801 0,70.801 33.07,106.199 99.21,106.199 65.86,0 98.8,-35.398 98.8,-106.199" /><path
         id="path36"
         style="fill:#274d84;fill-opacity:1;fill-rule:nonzero;stroke:none"
         d="m 1527.89,200.5 c -70.67,0 -106,25.73 -106,77.199 v 218.813 h 41.6 v -83.614 h 64.4 v -41.199 h -64.4 V 277.52 c 0,-11.27 3.6,-19.59 10.8,-24.95 9.87,-7.25 27.73,-10.871 53.6,-10.871 V 200.5" /><path
         id="path38"
         style="fill:#40c1ea;fill-opacity:1;fill-rule:nonzero;stroke:none"
         d="m 1733.89,200.898 h -49.6 l -46.8,70.403 -46.8,-70.403 h -50 l 71.6,108.204 -68.4,103.796 h 50 l 43.6,-66 43.6,66 h 50 l -68.8,-103.796 71.6,-108.204" /></g></g></svg>
