<?xml version="1.0" encoding="UTF-8" standalone="no"?>
<svg
   xmlns:dc="http://purl.org/dc/elements/1.1/"
   xmlns:cc="http://creativecommons.org/ns#"
   xmlns:rdf="http://www.w3.org/1999/02/22-rdf-syntax-ns#"
   xmlns:svg="http://www.w3.org/2000/svg"
   xmlns="http://www.w3.org/2000/svg"
   viewBox="0 0 467.54666 111.44"
   height="111.44"
   width="467.54666"
   xml:space="preserve"
   id="svg2"
   version="1.1"><metadata
     id="metadata8"><rdf:RDF><cc:Work
         rdf:about=""><dc:format>image/svg+xml</dc:format><dc:type
           rdf:resource="http://purl.org/dc/dcmitype/StillImage" /></cc:Work></rdf:RDF></metadata><defs
     id="defs6" /><g
     transform="matrix(1.3333333,0,0,-1.3333333,0,111.44)"
     id="g10"><g
       transform="scale(0.1)"
       id="g12"><path
         id="path14"
         style="fill:#274d84;fill-opacity:1;fill-rule:evenodd;stroke:none"
         d="m 101.34,222.953 c 227.605,204.285 383.34,0 575,0 192.305,0 349.58,207.645 576.89,0 -217.85,143.176 -384.585,-83.723 -576.89,-93.769 -191.66,10.046 -366.313,241.121 -575,93.769" /><path
         id="path16"
         style="fill:#274d84;fill-opacity:1;fill-rule:evenodd;stroke:none"
         d="m 706.973,245.629 c 174.375,51.59 191.828,215.664 408.547,78.926 -177.676,53.074 -299.758,-99.231 -408.547,-78.926" /><path
         id="path18"
         style="fill:#274d84;fill-opacity:1;fill-rule:evenodd;stroke:none"
         d="M 647.605,245.629 C 473.23,297.219 455.781,461.293 239.063,324.555 416.738,377.629 538.816,225.324 647.605,245.629" /><path
         id="path20"
         style="fill:#40c1ea;fill-opacity:1;fill-rule:evenodd;stroke:none"
         d="m 669.688,533.352 -83.348,-47.997 -75.402,60.36 C 423.074,529.641 279.309,422.699 234.727,341.535 303.02,408.109 396.504,452.688 487.844,458.961 L 669.688,327.055 v 206.297" /><path
         id="path22"
         style="fill:#40c1ea;fill-opacity:1;fill-rule:evenodd;stroke:none"
         d="m 519.973,553.762 c 2.8,46.203 38.172,127.074 149.715,124.718 V 550.16 l -82.02,-48.508 z m 75.562,34.394 c 14.27,0 25.832,-11.562 25.832,-25.82 0,-14.266 -11.562,-25.828 -25.832,-25.828 -14.258,0 -25.816,11.562 -25.816,25.828 0,14.258 11.558,25.82 25.816,25.82" /><path
         id="path24"
         style="fill:#40c1ea;fill-opacity:1;fill-rule:evenodd;stroke:none"
         d="m 684.895,533.352 83.347,-47.997 75.391,60.36 C 931.504,529.641 1075.27,422.699 1119.84,341.535 1051.56,408.109 958.074,452.688 866.738,458.961 L 684.895,327.055 v 206.297" /><path
         id="path26"
         style="fill:#40c1ea;fill-opacity:1;fill-rule:evenodd;stroke:none"
         d="M 834.602,553.762 C 831.809,599.965 796.434,680.836 684.895,678.48 V 550.16 l 82.019,-48.508 z m -75.559,34.394 c -14.27,0 -25.82,-11.562 -25.82,-25.82 0,-14.266 11.55,-25.828 25.82,-25.828 14.258,0 25.82,11.562 25.82,25.828 0,14.258 -11.562,25.82 -25.82,25.82" /><path
         id="path28"
         style="fill:#274d84;fill-opacity:1;fill-rule:nonzero;stroke:none"
         d="m 1572.12,532.785 c -45.27,0 -76.54,-6.297 -93.8,-18.894 -12.6,-9.344 -18.91,-23.801 -18.91,-43.399 V 233.891 h -72.79 v 236.152 c 0,89.891 61.83,134.844 185.5,134.844 v -72.102" /><path
         id="path30"
         style="fill:#274d84;fill-opacity:1;fill-rule:nonzero;stroke:none"
         d="m 1879.4,419.035 c 0,37.91 -6.29,65.305 -18.89,82.149 -15.4,21.074 -42.47,31.601 -81.2,31.601 -38.74,0 -65.8,-10.527 -81.2,-31.601 -12.6,-16.844 -18.9,-44.239 -18.9,-82.149 0,-37.918 6.3,-65.301 18.9,-82.148 15.4,-20.606 42.46,-30.899 81.2,-30.899 38.73,0 65.8,10.293 81.2,30.899 12.6,16.847 18.89,44.23 18.89,82.148 z m 72.81,0 c 0,-123.437 -57.64,-185.144 -172.9,-185.144 -115.75,0 -173.6,61.707 -173.6,185.144 0,123.899 57.85,185.852 173.6,185.852 115.26,0 172.9,-61.953 172.9,-185.852" /><path
         id="path32"
         style="fill:#274d84;fill-opacity:1;fill-rule:nonzero;stroke:none"
         d="m 2281.91,419.035 c 0,37.91 -6.3,65.305 -18.9,82.149 -15.87,21.074 -43.17,31.601 -81.9,31.601 h -100.1 v -113.75 c 0,-37.449 6.3,-64.609 18.9,-81.453 15.4,-21.066 42.46,-31.594 81.2,-31.594 38.73,0 66.03,10.528 81.9,31.594 12.6,16.844 18.9,44.004 18.9,81.453 z m 72.8,0 c 0,-123.437 -57.87,-185.144 -173.6,-185.144 -115.27,0 -172.9,61.824 -172.9,185.496 v 331.797 h 72.8 V 604.887 h 100.1 c 115.73,0 173.6,-61.953 173.6,-185.852" /><path
         id="path34"
         style="fill:#274d84;fill-opacity:1;fill-rule:nonzero;stroke:none"
         d="m 2659.9,419.035 c 0,37.91 -6.3,65.305 -18.89,82.149 -15.4,21.074 -42.47,31.601 -81.21,31.601 -38.74,0 -65.8,-10.527 -81.2,-31.601 -12.59,-16.844 -18.89,-44.239 -18.89,-82.149 0,-37.918 6.3,-65.301 18.89,-82.148 15.4,-20.606 42.46,-30.899 81.2,-30.899 38.74,0 65.81,10.293 81.21,30.899 12.59,16.847 18.89,44.23 18.89,82.148 z m 72.81,0 c 0,-123.437 -57.64,-185.144 -172.91,-185.144 -115.74,0 -173.59,61.707 -173.59,185.144 0,123.899 57.85,185.852 173.59,185.852 115.27,0 172.91,-61.953 172.91,-185.852" /><path
         id="path36"
         style="fill:#274d84;fill-opacity:1;fill-rule:nonzero;stroke:none"
         d="m 2972.8,233.188 c -123.67,0 -185.51,45.027 -185.51,135.097 v 382.899 h 72.81 V 604.887 h 112.7 V 532.785 H 2860.1 V 367.973 c 0,-19.727 6.3,-34.278 18.89,-43.664 17.27,-12.684 48.54,-19.024 93.81,-19.024 v -72.097" /><path
         id="path38"
         style="fill:#40c1ea;fill-opacity:1;fill-rule:nonzero;stroke:none"
         d="m 3333.29,233.891 h -86.8 l -81.89,123.195 -81.9,-123.195 h -87.5 l 125.3,189.355 -119.71,181.641 h 87.5 l 76.31,-115.5 76.3,115.5 h 87.5 L 3208,423.246 3333.29,233.891" /></g></g></svg>
