# Blender v2.66 (sub 1) OBJ File: 'circle.blend'
# www.blender.org
mtllib circle.mtl
o Plane.001
v 0.000000 -0.304800 -0.304800
v 0.000000 -0.304800 0.304800
v 0.000000 0.304800 -0.304800
v 0.000000 0.304800 0.304800
vn 1.000000 0.000000 -0.000000
usemtl 2
s off
f 2//1 1//1 3//1
f 4//1 2//1 3//1
o Plane
v 0.002540 0.228600 0.000000
v 0.002543 0.225127 0.039696
v 0.002546 0.214814 0.078186
v 0.002548 0.197973 0.114300
v 0.002550 0.175118 0.146942
v 0.002552 0.146941 0.175118
v 0.002554 0.114300 0.197974
v 0.002555 0.078186 0.214814
v 0.002556 0.039696 0.225127
v 0.002556 0.000000 0.228600
v 0.002556 -0.039696 0.225127
v 0.002555 -0.078186 0.214814
v 0.002554 -0.114300 0.197974
v 0.002552 -0.146941 0.175118
v 0.002550 -0.175118 0.146942
v 0.002548 -0.197973 0.114300
v 0.002546 -0.214814 0.078186
v 0.002543 -0.225127 0.039696
v 0.002540 -0.228600 0.000000
v 0.002537 -0.225127 -0.039696
v 0.002534 -0.214814 -0.078185
v 0.002532 -0.197973 -0.114300
v 0.002530 -0.175118 -0.146941
v 0.002528 -0.146941 -0.175117
v 0.002526 -0.114300 -0.197973
v 0.002525 -0.078186 -0.214813
v 0.002524 -0.039696 -0.225127
v 0.002524 -0.000000 -0.228600
v 0.002524 0.039696 -0.225127
v 0.002525 0.078186 -0.214813
v 0.002526 0.114300 -0.197973
v 0.002528 0.146941 -0.175117
v 0.002530 0.175118 -0.146941
v 0.002532 0.197973 -0.114300
v 0.002534 0.214814 -0.078186
v 0.002537 0.225127 -0.039696
vn -1.000000 0.000000 0.000071
vn -1.000000 0.000000 0.000072
usemtl 1
s off
f 5//2 40//2 6//2
f 40//2 39//2 6//2
f 39//2 38//2 6//2
f 38//2 37//2 6//2
f 37//2 36//2 6//2
f 36//2 35//2 6//2
f 35//2 34//2 6//2
f 34//2 33//2 6//2
f 33//2 32//2 6//2
f 32//2 31//2 6//2
f 31//2 30//2 6//2
f 30//2 29//2 6//2
f 29//2 28//2 6//2
f 28//2 27//2 6//2
f 6//2 27//2 7//2
f 17//2 19//2 18//2
f 16//2 19//2 17//2
f 15//2 19//2 16//2
f 12//3 14//3 13//3
f 7//2 27//2 8//2
f 27//2 26//2 8//2
f 26//2 25//2 8//2
f 15//2 20//2 19//2
f 8//2 25//2 9//2
f 9//2 25//2 10//2
f 25//2 24//2 10//2
f 24//2 23//2 10//2
f 23//2 22//2 10//2
f 22//2 21//2 10//2
f 21//2 20//2 10//2
f 20//2 15//2 10//2
f 15//2 14//2 10//2
f 14//2 12//2 11//2
f 10//2 14//2 11//2
